/* XPM */
static char *_122745212f241c6ae117fcd96dcfbebG8v93rcFJNIspP9b[] = {
/* columns rows colors chars-per-pixel */
"64 64 256 2 ",
"   c #000001",
".  c #0B0305",
"X  c #04020B",
"o  c #0A020C",
"O  c #060908",
"+  c #0A0A0D",
"@  c #140509",
"#  c #0E1407",
"$  c #050113",
"%  c #0B0114",
"&  c #0C0C13",
"*  c #03011A",
"=  c #0C011B",
"-  c #0C0D19",
";  c #110114",
":  c #140B17",
">  c #13011B",
",  c #19011D",
"<  c #0E1218",
"1  c #12141B",
"2  c #171619",
"3  c #270F13",
"4  c #1A2613",
"5  c #0C0124",
"6  c #070228",
"7  c #130124",
"8  c #1C0123",
"9  c #190B27",
"0  c #14012B",
"q  c #1B022C",
"w  c #161925",
"e  c #1A1B23",
"r  c #10172F",
"t  c #0C0334",
"y  c #150232",
"u  c #1B0233",
"i  c #170739",
"p  c #1D013C",
"a  c #24012B",
"s  c #250428",
"d  c #281C24",
"f  c #38102F",
"g  c #220136",
"h  c #2C0233",
"j  c #23013B",
"k  c #2A033C",
"l  c #320235",
"z  c #34013B",
"x  c #38043C",
"c  c #291738",
"v  c #1A2326",
"b  c #1C222C",
"n  c #1A2533",
"m  c #252628",
"M  c #2B232C",
"N  c #36252C",
"B  c #32362D",
"V  c #272935",
"C  c #382C39",
"Z  c #2B3337",
"A  c #34373A",
"S  c #4A1714",
"D  c #531C16",
"F  c #4C221C",
"G  c #69271E",
"H  c #4F172D",
"J  c #471929",
"K  c #472A29",
"L  c #582B2E",
"P  c #472836",
"I  c #46343A",
"U  c #553437",
"Y  c #70312F",
"T  c #3A413C",
"R  c #55453D",
"E  c #140645",
"W  c #1E0243",
"Q  c #190954",
"!  c #1B0957",
"~  c #151050",
"^  c #240143",
"/  c #2A0244",
"(  c #25014B",
")  c #2B014B",
"_  c #3C0143",
"`  c #380248",
"'  c #291545",
"]  c #3B1C4F",
"[  c #2A0254",
"{  c #260856",
"}  c #2D025C",
"|  c #330253",
" . c #31025D",
".. c #3C035A",
"X. c #1E3248",
"o. c #372B47",
"O. c #302A4B",
"+. c #2B3743",
"@. c #343C44",
"#. c #393847",
"$. c #1D0E63",
"%. c #1D106A",
"&. c #220E65",
"*. c #2C0768",
"=. c #240F6A",
"-. c #330164",
";. c #35016B",
":. c #3A036A",
">. c #211066",
",. c #22106C",
"<. c #2A0E73",
"1. c #3A0172",
"2. c #3B0479",
"3. c #241071",
"4. c #291074",
"5. c #311373",
"6. c #430445",
"7. c #45014B",
"8. c #4A014E",
"9. c #4F164A",
"0. c #4D0153",
"q. c #470358",
"w. c #530155",
"e. c #55015A",
"r. c #5B015C",
"t. c #59085A",
"y. c #671852",
"u. c #502D4F",
"i. c #493A44",
"p. c #563B45",
"a. c #480368",
"s. c #5D0161",
"d. c #550168",
"f. c #58156E",
"g. c #440378",
"h. c #570376",
"j. c #640065",
"k. c #67026A",
"l. c #640379",
"z. c #770478",
"x. c #681372",
"c. c #532F6A",
"v. c #6B2F7A",
"b. c #2F404A",
"n. c #3A4449",
"m. c #394854",
"M. c #375363",
"N. c #46484A",
"B. c #594449",
"V. c #474C54",
"C. c #495458",
"Z. c #555050",
"A. c #565759",
"S. c #6B4F56",
"D. c #5A615C",
"F. c #6A665B",
"G. c #4C4569",
"H. c #485A65",
"J. c #565964",
"K. c #69586E",
"L. c #755A68",
"P. c #5A6668",
"I. c #566873",
"U. c #506974",
"Y. c #676968",
"T. c #77686A",
"R. c #706D70",
"E. c #687576",
"W. c #757777",
"Q. c #963F36",
"!. c #8E443D",
"~. c #83067E",
"^. c #A44447",
"/. c #845A67",
"(. c #8E6F76",
"). c #866879",
"_. c #77847A",
"`. c #898377",
"'. c #311386",
"]. c #4D028C",
"[. c #570485",
"{. c #670385",
"}. c #730388",
"|. c #670B93",
" X c #780396",
".X c #6A348B",
"XX c #7004AE",
"oX c #7D34A4",
"OX c #755588",
"+X c #685C99",
"@X c #70748A",
"#X c #7D56AE",
"$X c #7B04CC",
"%X c #8D0290",
"&X c #82039B",
"*X c #8903A6",
"=X c #9005B6",
"-X c #A402B3",
";X c #8633A1",
":X c #865495",
">X c #877B88",
",X c #987788",
"<X c #8D7594",
"1X c #A9778A",
"2X c #AE758C",
"3X c #9A67B5",
"4X c #9004CE",
"5X c #A902CF",
"6X c #9729CC",
"7X c #8803E6",
"8X c #AC03E8",
"9X c #9B66DA",
"0X c #788789",
"qX c #6C8B99",
"wX c #728A92",
"eX c #7597A7",
"rX c #7BA6B8",
"tX c #898A89",
"yX c #87948B",
"uX c #898A95",
"iX c #958A92",
"pX c #879494",
"aX c #969B99",
"sX c #AA8A98",
"dX c #92A49A",
"fX c #A6AB9C",
"gX c #8D95A7",
"hX c #9698A4",
"jX c #AF94AC",
"kX c #B996A8",
"lX c #BC96AB",
"zX c #93AAAE",
"xX c #97B3BC",
"cX c #A7A9A7",
"vX c #A6B3A9",
"bX c #B3ADB1",
"nX c #AAB7B6",
"mX c #B6B9B5",
"MX c #CA96A9",
"NX c #D698AC",
"BX c #CF9DB2",
"VX c #C6AAB8",
"CX c #A9C6B1",
"ZX c #ABC7B5",
"AX c #B5C9BC",
"SX c #C3C7BD",
"DX c #9D86DA",
"FX c #B18AC8",
"GX c #90B3C5",
"HX c #ACB3C5",
"JX c #CBB6C6",
"KX c #B0C9CE",
"LX c #ABC7D7",
"PX c #CED2CF",
"IX c #D9E3D9",
"UX c #D9E4E2",
/* pixels */
", 3 3 @ . @ , H 8.e.w.0.w.t.j.z.z.}.j.w.r.H h f f H y.y.H y.t.t.s ; . . X . @ s 9.t.w.t.9.x s w.k.~.~.~.~.z.z.L.(.(.(.F.R D J Y ",
">   % X a 7.8.l z ` _ _ 0.w.l. Xh.{.}.h.{.&X{.) t.|.{. XXX*X5Xl.8.@             X z a e.z.z.~.%X~.%Xz.y.).W.T.F.m 2 2 # @ s 9.^.",
"h , z 8.6., % ; a l _ l _ l d.;X;XOX3XHX9X$X4X8X7X$X$X$X7X4X|.h.XX*X=X4X5X-X%Xk.z.%X-X%X%X%X|.c.#.A.F.F.d   8 8 s l l z l a H !.",
"w.w.8.,   > , s s 8 h a   A.<XcXZXZXZXCXhXDX9XDX9X7X7X7X4Xd.       X$X4X4X5X8X5X|.;X=XXX.Xh.B.A.B   > ; h x 7.0.8.8.8._ h l l L ",
"r.x   8 > > > , 8 8 = i.cXZXKXCXvXCXCXZXKXPXKXGX9X$XXX5X XX             k  X}.a.' ~ r ] o.g l d.}.r.z w.0._ z _ 6._ s , a h h @ ",
"r.6., > , , ;   % ; e N.R.AXvXCXAXCXdXHXFX9X@XJ.>.Q ) |.[.7       q.k.d.l.a.:.2.5.$.$.! $.#.O...h.&X X` l h ` 8.7.` s h l _ 6.3 ",
"k.0.s a o o   X o   V   _.dXdXAXyXE.AX>Xa o._.n.V X a.8X8X8X=X*X}.d.  % ; X X X i ~ >.>.&.&.*.-.-.a.*X}.) q.a.x h h a h h _ 9.K ",
"k.w.s % . X X .   o O O O T dX_.P._.    Z Y.0XvXxXdXKX9X6X6X-X8           0 ( ( *   * { &.&.>.>.,.%.{ *X}.a.q.q.` l h x x _ f L ",
"k.8.a   X         u = 2 w     e P.    F.zXAXdXdXdXvXgX<XjXjXq.          Z.K.#X9XM.    X Q >.&.>.,.,.%.$.{.{.d.d.q.7.z z _ 7.6.U ",
"r.s ; o       = ' #.  V o.    2     _.PXIXIXvXvXuXOX|.W.nXY.            PXCXnXHX+X6 0 O $ ! &.&.,.,.,.3.~ { q.d.a.7.l h 6.8.J U ",
"6.o o s a a a l x V   + <     O   E.IXIXcXuXW.N.V a   aX@.            A.mX_.C.N.c y 0 =   t %.>.,.3.,.3.3.3.W h.l g x 6._ h s L ",
"8.z h , , h ` 0.}.C       m D.  V IXIXdXK.M O     A.PXY.  X 0 X   2 #.m 2 O j } } [ W %     { ,.,.3.,.,.3.3.{ q 0.e.0.l h h f L ",
"z z x 6.7.8.h.*XoX#   O   V.    yXIXmX@ ;   > a.&X@XvX    0 E * X & ' > | g.;.} ( i %   X   5 ;.,.3.3.3.3.3.<.-.0 r.0.h h a f U ",
"j.8.w.e.e.0.x z N.    O.  7.    Y.PXA.d   7.|.{.O vXZ.    X   6 5       ^ | 5 0 y $ X 5 t t 5 [ =.3.3.3.3.3.2.2. .) q.z 8 a f U ",
"j.8._ l h a s / 0X    W X z     R.fX#.  ; jX9X$XhXyX2   X     t Q t   p ( X { ;.} [ } -.{ *.&. .<.,.,.3.3.<.2.].g.;.g a.d.l h N ",
"w.a 8 , s s s g 0X      g X     tXR.A   W.V.#X9XcXB     X       6 $ p ( u ^ -.1.1.1.1.2.1.2.<.<.=.%.3.3.=.3.3.3.1.].-.q. X{._ d ",
"l > o % 8 ; > a V.      k   #   tXY.# N.PXIXA.bXY.                W ;.;.;.1.;.;.1.} ;.} 1.1.>.>.=.%.=.,.=.$.! ! Q 7 -.t h. X7.N ",
"8 o ; > 8 , l x J.  X   Z   Z.N.yXR.F.W.mXIX.XFX        X O 0 ( %.&.[ } W (   y } -.} ;.} { ! $.=.3.,.3.3.3.%.5     0 (   d.q.J ",
"a 8 a l _ _ 8.u.yX      A   D.iXSXmXSX`.W.R.#XdX  1 % % =   ^ } ( u p p W ( 0 ( } } -.( W ( &.>.=.>.,.,.=.3.3.=.p     7 5   q.u.",
"7._ _ _ _ _ k K._.      iXuXhXIXIXvXfXVXvXOXDXeXV b = % X   =   [   u } ( y u -.W ( ( 0 X q ! >.>.=.%.=.=.%.$.%.;.W     7   . P ",
"j.e.7.0.0.8._ K.E.  tXcX:X;X;XR.iXiXu.N.R.6X3XM.n 1 o         [ 7 5 -.} y $ j p 0 $ $      .i >.%.:.:.>.%.! ! $.;.;.W   X   . K ",
"w.r.s.e.r.s.r.f.Y.tX<Xh.&X*X=X=X Xc.V.Y.:XXXuXn < X       = [ 0 X -.;.p X g       % $     -.$ E ! i X t E E ! =.,.1.;.i X   % H ",
"z 8.0.h 7.w.8.x >X.Xa.{.{. X}.f.J.yXuXW.:Xv.HXX     = w N.R.O.  0 -.-.p y     > 8 0       [ $       = 5 E ! E [ ;.1.1.{. Xt.7 F ",
"_ 7.7._ 7.7.6.8.q.d.8.d.d.h.{.h.aXmXgXjXoX3XZ.  X $ e Y.uX3Xf.  $ ;.[       X ` l   X     ^ X     = ) ( E ! $.{ ) -.:.h.$X[. .J ",
"0.0.w.e.e.w.7._ z h _ q.R.).<X:XbXcX@XK.iXV.X % X   O mX3XoX6   X  .[       = > 0 X       ^ X % [ p W E Q Q Q ! ^ j :.[.$XXXa.9.",
"s.s.j.j.j.j.s.e.0.7.7.` I Z.Y.N.F.Z.N.hX#.w 7 %     $ N.f.a   X [ } W     =     =         ..X ^ ^ ^ ^ i 6 Q Q E  .) a.|.XX$X|.y.",
"j.j.j.j.j.k.j.j.e.0.7.7.I T N.Y.R.X OXV.O.V u   X $ 7 j k * (  .;.(     =     $ % X     $ a.=  .u [   * E Q ! Q :. .h.[.XX7XXX9.",
"j.j.j.k.k.k.j.j.j.r.w.0.o       & 0XV.O.O.*           u u ) 0 ( (     g u       %       :.g ) j [ j 6 Q t Q ! ~ a.a. XXXXX4X|.L ",
"j.j.j.j.j.j.j.s.s.k.j.w.s     2 @XP.r w             X 7     y p     q ` o             u )   / 7 ^   ^     =.4.g.XX=X4XXX].-X].G ",
"j.j.j.k.j.k.k.s.j.k.8.8 X   A 0XJ.  X               =     $ q     h.d.7 7           X q ^   *   = , ..<.'.'.3.1.h.a.:.^ q z s G ",
"w.e.r.s.k.s.j.j.r.a : 7 X Z.uXV.O r O.yXW.>       % $     % X . a.a.j g g u > % X ;   9 0   q.a.a.g.*.E t 6 6 6 p ( { 5     . D ",
").)./.B.U 9.9.9.O : @   Y.uX  c ' u Y.JXOX^ 0 } * #.Z `.k   k h.h.| a.| | g / j = O X / l.l.k X           6 Q Q ;.-.;.;.-.-.) J ",
"BXNXNXMXMXMXjX1XS.T.Y.>XtX  w V c.}.3XcXF.  { 5.P.Z.P.T.t _ s.e.e. X}.{.h.h.h.` > % a.a.6   6 W ( p $   * ~ Q -.} -.-.} [ }  .9.",
"NXNXNXNXBXMXlXMXsXJXKXW.  V ' A.R   D.K.v $ c OXW.F.K.o.| l.r.w.w.8.w.w.w.w.s.d.g j y E [ -.;.;.p     X E E i p p u ^ u 0 0 s L ",
"NXNXNXNXNXNXMXlXBXJXY.  X V n.N.          O   # C 2 K.u f.k.r.e.w.w.w.q.w.6.| 8 * _ {.;.;.;.;.^ * % 6 t t X     X $ $ = 7 7 8 F ",
"sX2XNXNXNXNXNXVXIXG.*   X w C.      X % $     - e   a.K.L.s.r.7.6.8.0.H h g X     7. X-.;.;.2.t Q 7 * X                   % 8 L ",
"    . (.MXMXBXIXn.  : N.b Y.v       % 0 $   X k   :X:X9.6.0.0.8.e.8.` [ / 5 > X   }.g.:.;.-.-.[               % X X           K ",
"  .     3 sXPXB.    J.HXvXV.    X           q.0 L.9X1XMX,Xp.i._ 8.g [ 0 % 7 7 6 x  X:.)   W [ u           X 0 j k u q 0 8 0 > f ",
"        n.pXV.    ; R.mX<Xt   $ $     =     l.C jXlXsXlXsX1XT.v.[ u X 0 u u * _  X:.:.:.^ ( }   X     = 7 q y j j j j k g g g s ",
"      N.cXN.      Z W.cXG.          5 * g &X-.W.VXlXlXMXkXsXOX.X-.| a.p 0 *   l.h.( g.;.} j 0       = u y y u u / ^ j j g g g 8 ",
"U J A.bXm         Z.tXW.2       0 5 ;.].:.[.* bXlXlXlXlXlX>X.X:.0 ..l.    7.&X{.;.-.[ [ ( 0         7 u y q i u j g g g g g p 8 ",
"kXbXcX            0.f.9       y 1.].} 6 f.c.kXMXlXlXlXlXiXu.c '   7     ..{.} [ p $ X 7 W $       k k   - y y u g g u g g j g s ",
"bXhX  X         c w.  X = = y ^ ^ ( -.OX<XmXlXlXlXlXkXtXc.c.      =   8 a.y ( ( q ) 7 0 %       k ` =   X 0 y 0 u g g g g g g J ",
"hXZ             o.c ' j * X p W Q c.<XsXVXlXlXlXlXkX(.B N.Z     1   5 W W ( [ ( p = 0   > %       X       = y i j u g j p u 8 f ",
"A.            D.P.Z 7 p a.-.t x.:XMXkXkXlXlXsXsXVXmXA.w +.b     <   n } } ( 0 0 = = q d.= X   q 0 % 5   $ 0 y j g u 0 = 0 k k J ",
"d       + V.N.2 uX;.|.].* <XlX2Xp.T.BXlXsXkX,X,XPXdX  2 +     e   + ' r $ $   8 $ a a.o   % = X u q 0 % i 0 0 q 7 / ..a./ . . D ",
"l   z 7.c.m A @X@X@X:X6XlXsX2X2X2X/.p.M     sX  R.Y.      <   H.    b <       = a...) X     0 q 0 p u q 8 > 9 q k ..f.u.s     S ",
"u   l.>   E.eX_.E.# O   J S./.(.1X2X(.N M O     Y.A.b.    <   P.    w -         = / 8 q > u 7 ` k g a q ] g + o :   # K #     S ",
"y 9   O m.pX0XV.  & d d N p.I J.K.p.I P Z.N d N B.I n.    1 1     O         A P.v       / l.k | a.g 9   N   # d P K d X     > S ",
"5   Y.m.@X0XA.I 2   d S.N d N d J.C X M B.p.U p.p.V       X O     O     O O E.nXP.+     g ` =   8 ^ c d p.  2 d d N U N .   > S ",
"T R.D.K.>X).i.3 M M 1 V p.  J.hXN.: C & w M N.A C.n.    b n.            O e _.SXpXv   $ > a %     $ :.c c 9 : & .   : :   ` u S ",
"B . S.(.P . O 2 2 e O.A.iXi..   I B.N V n.e   1 H.V.  O           < v w e @.aXAXxXA   ^ u ( %     ^ ..) { c < X & o 8 g   X k s ",
"T.S.p.  N 2 2 O X & O X C I C C N d i.Y.v O   Z E.E.m O       b.+.m.P.V o 2 aXSXxX@X+.W   7       k j = X < w m m w j q O   @ S ",
",XR 3   O @ o 2 e 1 - O   #.V p.i.2 1   v O & C.n.I.n.  n H.U.U.m.w     O Z mXmXzXGXP.  X X =     q 9 X       e 1 w c Z e V N Y ",
"v.S./.o M :   < w & + O   X V w 2   v e     V.E.A   P.gXU.M.n.v         X A mXyX0XGXeX$   0 =   O &           e     & 1   #.d U ",
"(./.S.c o.I d w + < w n +.H.b V     v C.1 e W.i.m A O H.0X            O X M fXfXhXxXxX+X  q     O &         < &     O o   e @ D ",
"(.).>Xi.M M 2 v +.b V w n n b P.N.o o n.n.T.S.B.X B V & n.0XN.< w       X v yXfXmXAXxXP.$ o     1 2         w &     O     1 3 G ",
"/.(.,X,XL.i.M #.W.9 n v A w   C F.B.i.b.C.N.aXp.I d   A B N.pXI.m.  O       A.bXSXIXSXZ.        b v         <       O   O & 3 S ",
"Z.`.sX,X1X).L.L.A.B = Y.B   d S.T.Z.V.n.V.yX  I K B.B.  v v 0XgXqXH.r -     -   D._.pX          v         + &     +     &   3 D ",
"t.4 R.bXhX<XiX,XS.m m T.  i.Y.(.B.v 2 Z C.W.E.  @ N K S.K   Z HXeXqXqXr     * m wX            v b         < O     &     :   3 G ",
"3     V xXGXrXgX(.T.A C L.).).T M   m.m.V 1 V.I.V.2 & p./.R   eXzXKXGXHXzXgXwX0XKXUX_.O       n.          2     O     + O   @ G ",
"<XV.    n wXKXGXxX0X).(.(.W.m m   X m.m.n.Z O   Z Z w N.M H.E.qXqXrXLX0X+.I.r n qXLXGXZXdXwXqXwX@.n.< X < e   O :     <     d !.",
"9.:XV.  n X.@.nXPXLXrXtXpX  + O Z A C.H.n.    1 V V V +.n b.Z E.U.rXeXm.H.m.qXrXxXrXX.m.r C.wXeX0XwXI.@.n.+.  @.Z X < b.A V P.!.",
"9 : U.1 - b     W.PXUXxXn.w Z v @.m.- 1 V < o X < m m m C.n     U.zXT wXeXU.eXGXrXrXv v M.O   M.M.wX@X@.A m.n.H.C.@.m.E.C.V.Y.Q."
};
