/* XPM */
static char *_af97b945d6e419ae4df8018ee9e7461fJysjVdaawROtMLb[] = {
/* columns rows colors chars-per-pixel */
"32 32 209 2 ",
"   c #030201",
".  c #0A0602",
"X  c #060905",
"o  c #0C0A04",
"O  c #000409",
"+  c #02090C",
"@  c #0D0C09",
"#  c #130701",
"$  c #130C03",
"%  c #1A0C04",
"&  c #120F09",
"*  c #1E0D08",
"=  c #06120D",
"-  c #151103",
";  c #1A1505",
":  c #1E1905",
">  c #14120B",
",  c #1A150B",
"<  c #1C190C",
"1  c #161612",
"2  c #1B1912",
"3  c #220D04",
"4  c #241505",
"5  c #2B1303",
"6  c #251D04",
"7  c #2D1B05",
"8  c #2C130C",
"9  c #241D0C",
"0  c #28180A",
"q  c #311602",
"w  c #351A04",
"e  c #3C1C03",
"r  c #361D0D",
"t  c #241E13",
"y  c #2C1B10",
"u  c #2A2304",
"i  c #2B2506",
"p  c #26210B",
"a  c #2C240B",
"s  c #302604",
"d  c #352A05",
"f  c #3B2B04",
"g  c #332309",
"h  c #3E2409",
"j  c #342C0E",
"k  c #3C3104",
"l  c #3E330C",
"z  c #252113",
"x  c #2C2513",
"c  c #2A251C",
"v  c #2E2A1C",
"b  c #332416",
"n  c #322B14",
"m  c #382D11",
"M  c #332C1C",
"N  c #3B2E1D",
"B  c #3D3415",
"V  c #3B331B",
"C  c #2E2A20",
"Z  c #362E21",
"A  c #411E03",
"S  c #422205",
"D  c #4C2403",
"F  c #48250F",
"G  c #522603",
"H  c #562902",
"J  c #5A2B02",
"K  c #5A2B0A",
"L  c #403206",
"P  c #4D3D04",
"I  c #46370A",
"U  c #4C330D",
"Y  c #5B380D",
"T  c #442F1B",
"R  c #562615",
"E  c #5B2A13",
"W  c #5B2919",
"Q  c #443415",
"!  c #453911",
"~  c #42361C",
"^  c #4B3719",
"/  c #553714",
"(  c #622E02",
")  c #662D0A",
"_  c #722E05",
"`  c #653102",
"'  c #683200",
"]  c #66380C",
"[  c #7A3407",
"{  c #602C11",
"}  c #673614",
"|  c #723513",
" . c #7D3B12",
".. c #713A18",
"X. c #433523",
"o. c #463C23",
"O. c #4B3924",
"+. c #443C2B",
"@. c #533E26",
"#. c #593F24",
"$. c #533E29",
"%. c #4F410C",
"&. c #574407",
"*. c #5B4604",
"=. c #5B4A05",
"-. c #55440D",
";. c #5C4A0B",
":. c #574718",
">. c #604E04",
",. c #6B4807",
"<. c #624D09",
"1. c #645105",
"2. c #695504",
"3. c #645209",
"4. c #6D5708",
"5. c #6E590C",
"6. c #654719",
"7. c #7D441B",
"8. c #665112",
"9. c #67561D",
"0. c #7D5E17",
"q. c #7F6609",
"w. c #4E4326",
"e. c #4D402B",
"r. c #54422B",
"t. c #58452B",
"y. c #5E4A2D",
"u. c #5D522D",
"i. c #574832",
"p. c #7D4921",
"a. c #685827",
"s. c #64542F",
"d. c #765729",
"f. c #655434",
"g. c #685737",
"h. c #725E34",
"j. c #795B32",
"k. c #6E6238",
"l. c #7A6737",
"z. c #766339",
"x. c #796641",
"c. c #7C6F42",
"v. c #813B0B",
"b. c #813C15",
"n. c #90470E",
"m. c #855903",
"M. c #8C5C02",
"N. c #8C4214",
"B. c #88441A",
"V. c #974917",
"C. c #93481A",
"Z. c #88541A",
"A. c #9C501E",
"S. c #AD5007",
"D. c #8F6F08",
"F. c #8F7304",
"G. c #9D750E",
"H. c #886615",
"J. c #936E1B",
"K. c #8C741D",
"L. c #987915",
"P. c #864B24",
"I. c #875925",
"U. c #845C2B",
"Y. c #9C5525",
"T. c #955825",
"R. c #845F35",
"E. c #84612E",
"W. c #8B622B",
"Q. c #966E23",
"!. c #93792F",
"~. c #856637",
"^. c #946B35",
"/. c #877234",
"(. c #A17B33",
"). c #B77B30",
"_. c #8D7C43",
"`. c #977D48",
"'. c #A18104",
"]. c #A7870B",
"[. c #B28807",
"{. c #B99305",
"}. c #A68715",
"|. c #BA8D3B",
" X c #CB8E08",
".X c #C59807",
"XX c #DFAC02",
"oX c #D4A30B",
"OX c #EBAB02",
"+X c #D0952B",
"@X c #978647",
"#X c #9F9055",
"$X c #A98D49",
"%X c #B48D40",
"&X c #AF9A4B",
"*X c #B59E4A",
"=X c #A49356",
"-X c #A3955C",
";X c #B09D5A",
":X c #B7A154",
">X c #AB9463",
",X c #E1BE67",
"<X c #E4C46F",
"1X c #EECA6B",
"2X c #F3CD74",
"3X c #DEC284",
"4X c #E6C786",
"5X c #F5D786",
"6X c #F2D794",
/* pixels */
"# *     . 3 . R V.( n.v.S.( A J A G H E } } N.C.V.A.#.$.i.g.1X,X",
"# 3           # # . 5 A H G H K S r - } ]  .N.C.V.Y.i.r.f.x.4X<X",
"* 8             .   e H ( ( A . O   1 i. .N.C...p.P.$.t.g.g.<X5X",
"* 8   . 5     A #   H J J H . & > & =   p.| | ..} P.e.y.~.t.2X5X",
"* 8     e . . ( w H ` ' H       X > O o d. . ...p.Y.$.i.R.z.5X6X",
"5 q     #   3 ( E ' ` H       . X X X c V T.b.b.b.Y.X.X.$.$X1X6X",
"q # e D S # H ( K R J - . . o . . @ @ X O j.} N.b.B.X.$.$.`.2X6X",
"H e G H H   G W W W D u $ o $ # > > > @ X 1 ~.v.B.T X.$.$._.,X4X",
"J w e H H   ` E W W A i *.L % ; $ $ >   & @ O Z.| b X.X.X.f.>X3X",
"w D D J ( 3 ` ` W W 5 k <.+XU 0 : o o @ 2 X @ j.b.Z y Z O.y.g.`.",
"D G D H ( D ' ' { W 3 U y ).H.u 4 $ o . & > &   _.b y b $.$.j.g.",
"G D F H J H ( ' ' ) $ P r r w w 9 $ . & o O 1 ^ 1 Z x.T N $.x.+.",
"J H H H H G ( ' ' D o 0 7.] 4 g 0   %   X & O ^ & , c h._.`.C +.",
"J H H H H H ( ' J X t ; / { w S Y <.  . o X @.m # , % M R.R.Z C ",
"[ H J H H G ( ( D o 9 $ 0 F $ ] O .X  @ & O E.O > t * Z O.i.C c ",
") H J R H D J H o o p : ; s o U   [. X  o f ,.  @ , 1 y X.X.t C ",
"_ H J H H D J 7   X a . - g   Z.Q.P OXG.O ,.U . & o ; , 4 ~ 1 x ",
"q ` H J H H D X     B   ; #.d.d.W.  oXXXD.m.U 7   x . 1 x z + ^.",
"D J H J H H a     . ! ; . E.^.6.4 O {.XX[.M.f ;   l @ - @ o O %X",
"G J J H J h   6   o ! ! j j./ y . g ].,.m.1.- X   x X X :.x , |.",
"h G H H S z - a.    9 l s E.^   o   ;.d 6 .     . 6 . ; 9.d.l (.",
"8.3 G 5 < > 9 9.  X   - . U.Q   $ u 1.;.  .   . . p o u :./.f a.",
"8.    . o 2 o.n X   . - $ U.V o j L 1.k     . .     ; s =.!.~ o.",
"6.  $ . - z V 9 . o d : > I.N   l d =.k     u $   s - s &.}.T a.",
"Y . - < m w.B 9 z x f w.o W.x M K.l =.%.  o   . P k   L =.].-.:.",
"Y l       n n B x p   @X- I.t @XK.=.=.3.  o u P u     6 5.{.F.'.",
"H.I X - > ;   z x x   &Xu.W.x -Xk.:.&.5.  P d   . .     1..X'.{.",
"J./ o X > - X , M >   *Xu.~.w.=Xc.w.=.%.p P X   : a   X   =.4.k ",
"].=.j p p > p v z x   :Xu.W.u.#X@Xk.=.=.%.&..   ; n .     2.s . ",
"}.;.p a w.p V z z l   *Xx ^.l.#X#Xk.>.q.%.=.i   o x > . . q.    ",
"L.:.z p n x ~ M x z O @XB ^.l.#X=Xs.3.3.k 4.8.O X m <     ;.    ",
"0.= ;.}.%.n Z z M x O @XV E./.#X;XV 3.2.;.H.: o   B , > & j .   "
};
