/* XPM */
static char *_baa854bb3204ef6fde518f5ff45e590s0SS2Bx9e1UiEdhV[] = {
/* columns rows colors chars-per-pixel */
"64 64 255 2 ",
"   c #020100",
".  c #0B0202",
"X  c #0C0906",
"o  c #060809",
"O  c #0D0C0B",
"+  c #140302",
"@  c #1B0503",
"#  c #150904",
"$  c #1C0A06",
"%  c #1C0709",
"&  c #140D0A",
"*  c #1D0C0A",
"=  c #191209",
"-  c #1C130C",
";  c #0D0E12",
":  c #161514",
">  c #1C1512",
",  c #1E1A13",
"<  c #230503",
"1  c #2A0604",
"2  c #230A06",
"3  c #2B0906",
"4  c #260008",
"5  c #240C09",
"6  c #2C0D0A",
"7  c #320A06",
"8  c #380806",
"9  c #330D0A",
"0  c #3B0E0A",
"q  c #241306",
"w  c #2B1506",
"e  c #23130B",
"r  c #2C120C",
"t  c #25190C",
"y  c #2D1C0C",
"u  c #34110D",
"i  c #3B130E",
"p  c #341C0B",
"a  c #360711",
"s  c #231312",
"d  c #2A1412",
"f  c #231A13",
"g  c #2B1C13",
"h  c #281D1A",
"j  c #331512",
"k  c #3C1512",
"l  c #331B15",
"z  c #3D1A13",
"x  c #341C19",
"c  c #3B1C19",
"v  c #34230D",
"b  c #3A270D",
"n  c #2B2318",
"m  c #352313",
"M  c #3B2513",
"N  c #3C2A14",
"B  c #34261A",
"V  c #3C231D",
"C  c #3C2B1B",
"Z  c #3F311D",
"A  c #271C29",
"S  c #2C2523",
"D  c #2B2922",
"F  c #352C23",
"G  c #3B2A23",
"H  c #3A3229",
"J  c #352D31",
"K  c #3D3734",
"L  c #470707",
"P  c #420F0A",
"I  c #4F090C",
"U  c #44120C",
"Y  c #4B130D",
"T  c #451B0C",
"R  c #53160E",
"E  c #58160C",
"W  c #421612",
"Q  c #4C1512",
"!  c #441914",
"~  c #4A1B15",
"^  c #431D1A",
"/  c #4C1D19",
"(  c #531A14",
")  c #5C1A12",
"_  c #581A15",
"`  c #541E19",
"'  c #631C14",
"]  c #661D19",
"[  c #711214",
"{  c #48280C",
"}  c #50340D",
"|  c #472717",
" . c #432B15",
".. c #4D221C",
"X. c #432C1A",
"o. c #53231C",
"O. c #58271A",
"+. c #5B231C",
"@. c #453113",
"#. c #4B3314",
"$. c #4A3A16",
"%. c #44321B",
"&. c #4B341C",
"*. c #4E3C1D",
"=. c #563514",
"-. c #543B15",
";. c #51361B",
":. c #553B1C",
">. c #5A3D1E",
",. c #67271A",
"<. c #64231C",
"1. c #6C231C",
"2. c #6C3317",
"3. c #76351B",
"4. c #452522",
"5. c #4C2623",
"6. c #4A2C26",
"7. c #542521",
"8. c #542A25",
"9. c #592B27",
"0. c #5D2B25",
"q. c #443323",
"w. c #4B3522",
"e. c #4E3A24",
"r. c #49392A",
"t. c #533C23",
"y. c #5A3E21",
"u. c #56372A",
"i. c #5C312B",
"p. c #523D2A",
"a. c #473B34",
"s. c #583832",
"d. c #642A24",
"f. c #672A26",
"g. c #6C2A23",
"h. c #742C24",
"j. c #792B24",
"k. c #63332D",
"l. c #6A3628",
"z. c #73322C",
"x. c #7B3428",
"c. c #792F31",
"v. c #663934",
"b. c #783A36",
"n. c #3F402B",
"m. c #59431A",
"M. c #66481A",
"N. c #72451B",
"B. c #6B551D",
"V. c #785A1D",
"C. c #4E4024",
"Z. c #554123",
"A. c #5C4224",
"S. c #54422C",
"D. c #5B4728",
"F. c #4D4339",
"G. c #534433",
"H. c #5C4A34",
"J. c #584739",
"K. c #634524",
"L. c #644926",
"P. c #694B25",
"I. c #644429",
"U. c #654B2B",
"Y. c #6B4D2B",
"T. c #754C26",
"R. c #6A5424",
"E. c #6D512B",
"W. c #73532B",
"Q. c #785828",
"!. c #664B36",
"~. c #794639",
"^. c #695537",
"/. c #775835",
"(. c #6F602B",
"). c #7C6426",
"_. c #796334",
"`. c #4A3F40",
"'. c #4F4649",
"]. c #574D42",
"[. c #5E5345",
"{. c #665747",
"}. c #765245",
"|. c #72624C",
" X c #8A1218",
".X c #892C19",
"XX c #A41324",
"oX c #842A24",
"OX c #9A2B27",
"+X c #863428",
"@X c #963529",
"#X c #853B37",
"$X c #843C35",
"%X c #8B3C3C",
"&X c #963A36",
"*X c #AB302D",
"=X c #B73B38",
"-X c #C21C2E",
";X c #CD3738",
":X c #8F4D18",
">X c #8B6A1B",
",X c #A5651E",
"<X c #835B29",
"1X c #90512B",
"2X c #85433A",
"3X c #8C413C",
"4X c #95433B",
"5X c #855D34",
"6X c #AA4837",
"7X c #B44A3C",
"8X c #876729",
"9X c #94682D",
"0X c #89742B",
"qX c #967A2D",
"wX c #896334",
"eX c #956639",
"rX c #897637",
"tX c #977B39",
"yX c #AD7533",
"uX c #A87539",
"iX c #C8473B",
"pX c #943F42",
"aX c #894843",
"sX c #9C4342",
"dX c #974B44",
"fX c #8B5C4C",
"gX c #965145",
"hX c #A64B46",
"jX c #B64C46",
"kX c #A6554A",
"lX c #B75247",
"zX c #B44C51",
"xX c #A85E59",
"cX c #B85852",
"vX c #996F46",
"bX c #B67A48",
"nX c #C75649",
"mX c #CC665C",
"MX c #D46D63",
"NX c #9B8636",
"BX c #A48A35",
"VX c #B8853B",
"CX c #A8953A",
"ZX c #B89132",
"AX c #C29B36",
"SX c #D3A837",
"DX c #AD8849",
"FX c #BA8545",
"GX c #C58947",
"HX c #CA924A",
"JX c #D5974A",
"KX c #D59A4B",
"LX c #D49650",
"PX c #DBA14E",
"IX c #E2A44D",
/* pixels */
"k i.k.6 6 6 2 @ & G 5.6 3 W ` ` ( Y L E ) ,.<.h.6XjXnXiX;X;X*Xh.3 1 6 9 6 9 ~ l.b.k.c x 5...+ 5 9 6 5 @ . @ * c 9.f.g.zXmX*X%Xc.",
"i l l 6 u 6 2 % + % % . 4 i / o.Q Q <.1.1.j.z.oX6XnX7XiX;X;X7XoXp w 2 . @ @ r i.~.v.4.V s.8.  * % 6 5 5 $ 6 j i.pXpXpXzXmXhXhXhX",
"0 1 3 9 u 9 5 @ + .     . 2 u k 2 W j.$X+X$X$X+XiXiX7X6X*X*XOX] { { 0 $ = @ + i.b.k.4.c 8.4.  d s 6 5 5 6 u j 9.#XpXc.#X4X%XpXpX",
"U i 7 6 u 7 6 @ + +       . + +   d z.$Xx.+X$X+X7XnX7X1X] [ ' Y ~ { T {  .= X i.}.k.4.x 4.c   > % % + + 2 6 9 c 7.` ^ W W Y z 4.",
"! i 6 . 6 7 u 2 < $ + . . + @ < @ i f.z.h.h.h.+X7XnXlX6X0.# p N.N.~ a { b $ 5 i.}.v.5.c 4.c       + . . . 2 j 3 @ 2 +   .     5 ",
"W 7 +   @ 9 0 1 < 2 @ @ @ @ < l l o.$X@X+X@X&X&X7XnX7X%Xd.t.wXVXZXqXV.{ < 1 ! i.}.v.5.^ c s   X   . . . + < 6 % x j 6 9 6 j j g ",
"W 7 + # 5 6 i ^ ^ 3 k ..j 3 3 c x d.6X&X*X6XjX*X7XnX@X/ s Y.FXKXSXSXAX>Xb < T u.b.v.6.4.c o . s x % + @ @ 2 @ * 9.8.O.O.~ O.0.6.",
"~ i 3 r j 6 k 8.8.7 / k.^ 3 3 r % 7.3X&X@X4X6X*X*X*XoX1.) M.vXDXZXAXAXBXM.  7 4.s.v.5.| x X   h | s @ + + .   * i.0.O.+./ 0.f.u.",
"~ W i u c 7 7 k k 1 ^ i.^ 4 6 $ @ ! g.j.g.j.+XOX*X.X.X:X.Xu.!././.Q.0XBXQ.7 + e G 4.c x d + + * r $ $ @ + + + e s.9.....~ o.+.u.",
"W i 9 z ^ k u z ! 0 j 4.j 9 u 2 @ W <.d.d.d.3.OX*X+X.X.XN.p.J.!.s.M V.yX>X{ +   + 5 5 u 6 6 6 6 3 u i u 6 6 6 j s.i.` o.O.o.<.s.",
"i u u i W ^ :.Y.E.#.1 6 1 0 k 6 @ k O.f.<.f.z.@X=X@X3.} e.!./.^.M.} ).NX8X{ p q     + 2 6 5 5 6 2 6 u i r 6 u j s.k.+.o.<.` O.s.",
"9 6 u i u ! :.E.Q.P.;.1 @ 1 8 < . k 0.z.f.g.x.@X=X7X+X{ H S.W.Q.V.V.qXqX_.J.!.G.    . . + # @ @ + + 6 9 2 . 5 * s.7./ o.k.0.9.u.",
"9 9 i U j 6 q f @.P.Q.m.#. .M @   9 z.b.z.z.j.@X=X;XOXy.D.m.m.).Q.V.0X0X^.H.{.[.F.D       X @ $ X   3 6 2   5 5 4...! ..k.~.v.s.",
"u u k i u 5 .   $ N L.R.R.P.L.:.C.O.z.j.g.f.g. XXX*XoXF./.R.R.0X0XN.m.N y n Z H.|.[.n o     . % @   @ 3 <   @ d 6.7.! 8.v.b.v.s.",
"W i u r u 7 @ X # = y %.e.K.W.8X0X).T.2Xh.] [ [ XX-XXX .:.-.>XBXBXNX>XV.m.v v Z F.[.F.h       + @   + 5 % . % > 6.9.( 8.v.5.G S ",
"! U u 3 i i 6 @ X     q  .m.P.).qXBXNXNXwX3.[ [ XX-X-X[ I } 0XBXBXBXCXCXNXB.C.= h G.[.F     . . % . + $ @ @ 1 & u.9.~ 7.i.6 . A ",
"! U 9 3 u i u 2 $   b M.M.N.N.N.0XCXCXCXCXrXV.:X:X6X*X.X' } V.).).).0X).).(.m.q ; K [.a.  . + . $ . @ 2 $ 5 5 & 6.4.T / 7.< k G ",
"W i r 2 7 i i 6 2 . =.<XM.2.2.N.Q.0X0XNXNXNXNXNXqX,X,X,X:XB.B.>.@.@.b b m.m.} q   H {.F.=   $ . @ + 5 2 4 2 @ . c ^ i u k 6 / 6.",
"U u u u 7 0 9 9 6 4 O.T.#.w { =.P.T.Q.8X_.NXNXCXBXNXBX>X>X>XV.M.{ { b @.C.C.C.q.b H ].].F   $ + + 2 u 9 6 j u @ 5 7./ $ 6 r / 6.",
"i u 3 7 6 2 < 6 7 9 z B 2 2 q q } T.wX<X(._.vXNX0XNX0XR.B.V.V.V.m.b m.m.m.C.F.^.H.Z F.{.J.  5 @ . < j 9 6 0 k 5 2 0.9.k W u z 8.",
"7 6 2 3 @ .   2 2 7 a s 7 i 3   # ;./.8X).(._.(.B.B.R.(.).).8X).V.-.C.R.m.$.C.[.^.#.p.|.[.- . + % + 5 5 + + + + f k.k.W ..z k 6.",
"+ + . + +     + < 0 P 7 3 9 6 .   g L./._.R.U.D.m.m.L.R.M.M.m.M.R.R.Z.q.Z Z.J.^.|.wX5X{.|.H.  * c s j x . + . . % 0.i.! ..U T 9.",
"  .     .     . 6 Q Q 9 3 6 2 .   = C Z.D.m.m.:.m.m.m.C.} m.-.} m.m.C.m C S.H.J.^.wXwXY.|.^.  + d * x d %  .Z.q + ..o.~ ( 0 U 8.",
". +             4 Q Q P 6 < + +   + k ..O.#.N b b $.m.} $.} =.-.} @.&.w.q.Z.H.e.t.L.T.K.D.!.,   .       * L.tXt   k / / ~ i Q 7.",
". +               6 Q W a + . .   $ ~ _ ` ~ i q m @.@.$.-.-.-.:.=.$.*.p.w.r.S.Z.e.G.I.#.C F.K         . y W.DX= . 4.i.5.Q Q _ 0.",
"  .           % k / Q Q Q j % %   < / +.+.` ~ j N m v #.-.=.-.m.y.>.p.G.e.p.S.D.A.J.J.a.K a.H       . $ | 5XtX  h v.v./ ~ ( ` <.",
". . + .       j f.f.Q ( f...6 * . $ ~ +.+.+.` j v N v v #.-.=.>.>.;.q.r.r.S.S.A.-.D.J.].'.K :   .   . 2 :.wX_.  h v.k.i ! / ~ O.",
"9 u 9 r 5 + . 2 ^ ! a P ^ k 5 % . @ i / ` ` O.&.C.m.b 2 b #.=.>.;.{ V r.G.S.e.Z.-.y.H.J.r.;     + @ @ w A.wXl.1 G v.k.@ z i ^ 0.",
"/ ^ Q ^ ! W k 2 . . + @ + @ @ @ + + 2 r 9 9 Z.(.(.%.v y y @.>.y.;.M M r.H.S.G e.&.;.>.I. .  + @ 6 5 + q I.5X@ @ d 0.0.V 8.0./ g.",
"/ / / / / / / ! 9 5 % o . d d 5 r 3 + X + . Z.rX_.C b @.b y &.A.&.t e B q.w.q.%.X.X.;.I.%.  $ 2 6 6 1 T T.eX8   # 5.O.! 7.x./ ,.",
"W ! ! ! ! Q ` o.! d d + X d d 5 j 2 + % + . C._.R.b $.*.N v C *.N q e q m w.e.q.X.X.X.u.%.X < z W i W O.Q.eX9.@ 6 9.7.9 U z.i +.",
"@ 9 k k k k ^ 7...j x X . * * > x s * 5 % h p.E.D.@.*.e.C.%.Z @.N v m e w N &.q.X.X.| t.w.x @ W W i T P.<X~.f.9 j i.0.T +.x.^ +.",
"@ 6 u j j 6 ! 7.o.u +   . & . O s x x x d G D.Y.L.&.:.L.L.K.&.%.X. . .y q p m B B | X.;.t.V   2 5 6 M W.Q.....u 2 z.3X2X2X2Xl.z.",
"k k k ! k 9 ! 5.o.k +   . & & . O s x d s w.Y.Y.Y.;.t.Y.W.U.Z.&.m y M  . .g t t M X.&.u.A.Z   6 u 7 M W./.4 7.u ^ 3XcXxX1X4X3Xx.",
"6 5 9 k k k ! ` +.^ u 2 % . * s s d d . s w.!.E.L.&.t.Y.Y.Y.Y.I.:.N t N #.v t l M w.&.A.^.Z.  2 3 3 v T.W.  ..u.kXcXcX6Xb.g.d.f.",
"    . 2 9 j k / O.+./ ~ 0 @ 5 x d x 2 + @ | A.Y.Y.I.I.Y.U.Y.Y.Y.I. .+ q |  .v y C t.w.D./.J.&     # b K.M.  6.xXxX3X$X,.Y ` i.z.",
"          @ 6 ! O.+...~ ! w $ e s 2 @ + < #.D.A.U.Y.Y.P.L.I.L.I.Z.| * . q p m t B *.p.!.H.C.C o X q ;.K.| 0 ~.MXdXj.f.v.dXhXgX~.",
"O           @ ~ d.d.~ u ! u +   . . @ + * t.Y.I.K.L.P.K.K.K.K.y.:.N v M q + q C q.m &.D.Z : H r.$.b M.K. .o./.MXjXc.~.xXxXcXaXk.",
"O           + W d.l.+.z W i + . + + @ + * t./.Y.y.y.K.y.;.y.I.K.;. .&.y.&.y * G r.y B *.B , q.S.D.e.W.P.7 +.dXcX4X] aXxXaX~.7.6 ",
";           . 9 ` f.l.+.Y i < @ @ @ @ @ d t.Y.Y.P.t.y.>.;.t.K.K.y.y.m.K.L.t.m t y = t m N r.S.Z %.Z.W.m.@ d.dXmXsXc.aXdX/ j   . ",
"> + .         @ W +.g.g.] Y 1 < + + + @ G D.Y.Y.U.K.y.&.| :.K.A.L.L.I.L.Y.Y.p.y @ $ . # m S.^.F.+ M &.b < d.dXMXmXaX2X%X8 .   + ",
"s + + X         7 ( ' 1.1._ 0 @ . +   # e.U.W.Y.P.U.L.y.:.A.L.L.L.y.w.y.Y.W.U.q.+ @   . y e.H.J.G p b w < 0.sXmXmXdX2X4XI     9 ",
"> + @ @ + + + . + P E ] h.] P 1 @ +   # r.Y.Y.Y.P.P.K.A.>.Z.A.A.t.:.Z.A.y.L.U.%.  @ X   # v Z r.q.C M e < _ pXzXlX3XaX4XL   2 ) ",
"s . + + + @ @ @ + 8 ) ] 1.<.~ 1 @ . s e.U.I.A.A.A.A.y.u.q.C l v l X.D.L.Z.p.e.n   q = X     # y m #.m   @ ~ pXzX&Xb.}.%X(   3 _ ",
"- . . . . + @ < @ 7 R ' ] ,.o.0 +   n !.^.&.z N &.#.#.`.'.D       # m Z.E.^.Z   # t q #         b R.@.  4 ` pXzXpXv.}.#X+X  < ( ",
"> . .     + @ @ + < Y ' ] <.E 0 @ . y :.@.e @ M &.m * K '.a.,       . C U./.Z.  + - = .       . &.W.@.  7 +.pXhXpXpXsX%Xc.  @ ) ",
"s + + + . + + + . @ L E ' ) R P 1 < < y q @ < z u.B o S F.].F       o f &.U.p.    $ - X       v P.A.y   9 d.%XzXpX#XsXsX<.  + ( ",
"s . + + . + @ + . < Y ' ,.) E U 1 1 1 @ + < 1 i w.n   , F.[.K       O O n e.%.    # 5 #       =.9X:.  . a ` c.zXpX#XsXhX,.  . ) ",
"5   .     . . X   1 Y ' <.) ) Y 7 1 1 < + < i  .l =   : F.[.a.  . X X o h F B     # q #     w T.uX@.  X 0 _ c.cXsXb.2X3Xz.  . ( ",
"j 1 3 < < < < 1 1 7 R ) ) ) E R P 1 < < @ < z X.y X . X K F.H   & & . ; S D -     h C ,   + { Q.9Xv   + 9 _ c.zXpXpX#X2Xg.  + ( ",
"T 0 8 7 1 7 7 P 0 0 Y ) ,.E Y Y Y 8 < < @ 1 z #.n X o . J a.S o : = > S J F q   . n H >   X @.W.Y.q   . 7 ` z.zX%Xc.3X#XY   + R ",
"x < < < 1 7 7 7 7 7 L ) ' ) Y P Y P 1 + + p |  .q .   o J a.J o &   o a.J.u.2     X # .   + :.wX .        < o.4Xg.d.z.g.      1 ",
"d @ @ @ < < < < @ 1 U E ' E Y Y Y U 1 + + b X.m # X . . F F.K A , x a.}.fXI.      .       q U.wXq   . 6 k c ` 7.o.o.7.+.! ^ ~ / ",
"r . @ @ + @ < < + < Y ) ' E E Y U P 1 @ @ V q.g X O o X n H a.F A J.fXfX/.|           . #  .W./.    % o.c.b.aXb.b.b.b.b.c.b.b.#X",
"j + @ + + @ < < + < P ) ' ) R Y 0 9 < . $ q.r.g   X X = f B %.%.G a.!.^.w..         . . = m.5XA.    6 0.b.~.aXaXb.~.b.b.b.l.z.b.",
"k 3 < < < < < @ @ @ 1 R ' ) E Y 7 3 @ . V r.%.- o & ; , , t v C l & > 5 X . . .           K.5XK.g   2 k 7.9.9.k.z.9.O.0.9.^ d.f.",
"~ 0 1 3 0 7 @ < < . @ Y ) ' ) Y 7 7 @ $ p.G.n o : - , f n B g & + + # , t = . + b $.m.W.Q.wXvXvXW.q . 7 U Y +.,.h.+.k _ 1.<.+Xj.",
"Q 0 1 1 U P < 7 7 . < Y E ' E P U 0 1 | !.s., O = - f n B q.w.n   - , , , X . >.9XDXFXHXHXbXbXHXbX@.    < L ' 1.j.h.<.] +Xx.+X` ",
"( 0 7 6 U Y 7 9 9 . < P ) ) R Y R I O.!.!.B ; , - , n t > G J.6.X n n , : o q wXHXPXPXIXKXtXY.bXGXl.| m.m.x.2X,.1.j.1.1.x.+Xj.+.",
") P 7 6 Y ) U i 9 + < Y ) ) R R E ' b.~.u.t o & - , - X . G !.e.O n F D n :  .5XuXVXIXIXKXbXx.Y.vXeXyXGXVXVXuX1Xx.j.j.j.j.h.j.h.",
"d.Y P 7 Y ( U 0 7 . < Y ) ' E ' R h.~.!.m X   & t n O     f S.s.K D H F F n X.D.e.9XPXIXJXFX~.I.GXGXKXJXKXKXHXGXnXyX1X@Xj.0 g.h.",
"g.) Q P Y Y P 0 9 @ < Y ) ' ' ] 1.h.~.D.f     = f f -       q.{.G.; D D D h w g O wXKXIXGXeXl.1XLXKXJXJXKXKXKXKXPXGXAXbX,XO.Q oX",
"h.) R U R Y U U U 1 1 P E ' ,.1.1.1.l.K.%.X   ; , q < @     C /.^.X : , > : X     E.FXKXVX1X' ,XHXHXmXGXGXHXHXKXKXKXLXKXGXyXO.@X",
"g.' ) Q R R R R R P 0 Y E ' ' ] 1.h.T.L.C X   X - 5 @ + .   C |.}.F ; ; h D ,     %.eXGXFX1X3.1XFXbXbXbXbXbXbXGXGXVXZXHXJXIX<X@X"
};
