/* XPM */
static char *_533ffaf895342d9d44fc38ddd7e1913GpVGGSeJ61kaFCNB[] = {
/* columns rows colors chars-per-pixel */
"64 64 251 2 ",
"   c #020101",
".  c #0B0502",
"X  c #0C0A04",
"o  c #050609",
"O  c #0D0D09",
"+  c #130603",
"@  c #190707",
"#  c #140A04",
"$  c #1B0B05",
"%  c #120E0A",
"&  c #1D0D09",
"*  c #151104",
"=  c #1A1405",
"-  c #1F1905",
";  c #15120B",
":  c #1B150B",
">  c #1E190D",
",  c #020F10",
"<  c #181713",
"1  c #1C1A13",
"2  c #270205",
"3  c #230D05",
"4  c #2A0E05",
"5  c #220E09",
"6  c #370B07",
"7  c #231204",
"8  c #2C1304",
"9  c #2A1B07",
"0  c #25120A",
"q  c #2B120A",
"w  c #241D0C",
"e  c #331404",
"r  c #3B1506",
"t  c #341A04",
"y  c #3C1B03",
"u  c #33150C",
"i  c #3D1509",
"p  c #331B0C",
"a  c #3C1A0D",
"s  c #231C13",
"d  c #261C14",
"f  c #361C13",
"g  c #3C1B11",
"h  c #18211E",
"j  c #2B2304",
"k  c #26210C",
"l  c #2B240C",
"z  c #3B2C04",
"x  c #372608",
"c  c #332A0D",
"v  c #3C3104",
"b  c #3D320D",
"n  c #252113",
"m  c #2C2413",
"M  c #28241A",
"N  c #2E291D",
"B  c #322514",
"V  c #372616",
"C  c #332B14",
"Z  c #3A2C13",
"A  c #332C1C",
"S  c #3A2E1C",
"D  c #3D3313",
"F  c #3C331B",
"G  c #2C2A21",
"H  c #332D22",
"J  c #382F22",
"K  c #3A3323",
"L  c #383427",
"P  c #431B05",
"I  c #461806",
"U  c #441B0B",
"Y  c #4B1C0A",
"T  c #541E09",
"R  c #591F09",
"E  c #431E12",
"W  c #4B1F11",
"Q  c #621E0C",
"!  c #442104",
"~  c #4C2403",
"^  c #46270B",
"/  c #532603",
"(  c #552902",
")  c #5B2B02",
"_  c #55220B",
"`  c #5B210A",
"'  c #572809",
"]  c #5B2D0B",
"[  c #483809",
"{  c #5C310D",
"}  c #59390C",
"|  c #442114",
" . c #4C2215",
".. c #492A16",
"X. c #522415",
"o. c #5D2613",
"O. c #562915",
"+. c #5C2A14",
"@. c #522519",
"#. c #5B2A1A",
"$. c #423513",
"%. c #4B3516",
"&. c #453A14",
"*. c #4A3D13",
"=. c #42361C",
"-. c #443A1B",
";. c #4A3E1B",
":. c #553715",
">. c #5D3313",
",. c #622E02",
"<. c #62240D",
"1. c #662909",
"2. c #752B0C",
"3. c #653103",
"4. c #63330B",
"5. c #68360A",
"6. c #622A14",
"7. c #682B16",
"8. c #663716",
"9. c #6A3B13",
"0. c #753211",
"q. c #763617",
"w. c #472824",
"e. c #463C23",
"r. c #473925",
"t. c #553D25",
"y. c #673922",
"u. c #7B3922",
"i. c #4F410B",
"p. c #5B4A05",
"a. c #584609",
"s. c #4E4114",
"d. c #4D411B",
"f. c #524415",
"g. c #594917",
"h. c #53451A",
"j. c #5C4C19",
"k. c #674909",
"l. c #734E0B",
"z. c #685407",
"x. c #755708",
"c. c #654718",
"v. c #784616",
"b. c #675416",
"n. c #75551C",
"m. c #7C640B",
"M. c #4B4229",
"N. c #574729",
"B. c #5B512C",
"V. c #584E33",
"C. c #674C2A",
"Z. c #794B24",
"A. c #67582B",
"S. c #775626",
"D. c #685935",
"F. c #755D32",
"G. c #72612F",
"H. c #796538",
"J. c #655B40",
"K. c #776B43",
"L. c #7A6A44",
"P. c #81370C",
"I. c #873613",
"U. c #983714",
"Y. c #B13F15",
"T. c #8A4316",
"R. c #954918",
"E. c #895611",
"W. c #AD5007",
"Q. c #B84517",
"!. c #8A6614",
"~. c #947411",
"^. c #854B24",
"/. c #865A29",
"(. c #985524",
"). c #8D5931",
"_. c #B05527",
"`. c #89632B",
"'. c #866839",
"]. c #87753C",
"[. c #927231",
"{. c #AA7D28",
"}. c #B07630",
"|. c #D14F11",
" X c #C65A28",
".X c #CD612A",
"XX c #D06129",
"oX c #8A7945",
"OX c #957845",
"+X c #A58508",
"@X c #AF8B0C",
"#X c #97833C",
"$X c #B88326",
"%X c #B48D3A",
"&X c #CB8E08",
"*X c #C39A08",
"=X c #D3A605",
"-X c #EBAB02",
";X c #CC8E37",
":X c #CA9539",
">X c #DDAA3C",
",X c #98874A",
"<X c #998654",
"1X c #9E8D52",
"2X c #9F9055",
"3X c #A58946",
"4X c #A98B4E",
"5X c #AA954C",
"6X c #B79648",
"7X c #A39354",
"8X c #A99655",
"9X c #AB9954",
"0X c #A9965B",
"qX c #AC9B59",
"wX c #B49E54",
"eX c #B39E5A",
"rX c #B99A58",
"tX c #B5A15B",
"yX c #B8A258",
"uX c #B19965",
"iX c #BFA264",
"pX c #C79949",
"aX c #DCB146",
"sX c #CBA453",
"dX c #D3AD5A",
"fX c #DAB65B",
"gX c #E3B444",
"hX c #E2BC5D",
"jX c #C8AB67",
"kX c #DABA66",
"lX c #D0B26D",
"zX c #D9BC77",
"xX c #E1BD67",
"cX c #E6C15D",
"vX c #DCC17C",
"bX c #EBC767",
"nX c #F1CC66",
"mX c #E6C778",
"MX c #F4D073",
"NX c #D2B984",
"BX c #DDC282",
"VX c #E7CC89",
"CX c #EDD38B",
"ZX c #F3D789",
"AX c #E8CF92",
"SX c #ECD393",
"DX c #EBD49A",
"FX c #EAD49B",
"GX c #F2D898",
"HX c #EBD5A2",
"JX c #F3DCA1",
/* pixels */
"0 5 q & 3 $ @ r $ + + + .   . +             . q i g W o.q.O.8.7.] q 9 8 + f : 0 Z ..>.y.Z./.^.).}.pXhXMXnXnXnXxXfXsXsXL.L.D.oX'.",
". . . + + # & e I 8 0 q $ # l c.                          .     . o   ; w d p Z +.c.4.I.R.(._.}.pXxXnXnXnXnXnXhXdXdXdX0XrXxXdX6X",
"  .   . $ e + q . # + + q + t n.  . & &     . +   Y Y 0               o  .~ :.] 0.R.R.R.(./.).C.hXhXhXhXVXVXVXxXfXdXdXdXkXdXdX6X",
"+   X.+ $ 7.6.q o.` . . 0 5 | b.    # $     . 5 . o.R.3.T.P.W.3.x ( P ~ ( { >.9.U.R.R.R.N.t.N.D.nXxXxXGXZXSXZXAXzXzXzXmXlXjXuXOX",
"@   E . 3  .+.  _.q.f . & p u.S.  . # 7           . # . 3 P ( ~ ( { ! p ; 8.9.q.T.R.(.(.V.t.D.L.MXzXCXSXGXGXHXSXVXzXzXzXlXuX8X0X",
"@ % 4 3 4 e 8 u + 3 & @ 5 # % n.  . @ q             .   y / ,.) ~ .     < M.v.T.R.q.Z.^.r.t.C.J.MXZXZXZXGXSXGXAXVXVXvXxXkXlX0XiX",
"o . @ . + 4 q 8 & 0 7 & 0 + q S.  + 5 q   . t     P +   ( ( ) ( . O < O O   E.0.7.q.y.).t.V.'.t.MXZXZXGXSXGXHXGXAXVXmXfXxXkXrXrX",
"o . . o . + @ 3 + 0 q 0 a . p c.  @ & q     y . . ,.t ) 3.3.)         <   X S.0.0.0.^.).t.y.'.H.MXGXJXJXJXGXSXCXAXVXmXxXfXhXdXsX",
"& + & @ # & + 0 & p 0 0 & . a z.  $ 8 t     . . 3 ,.+.3.3.(         O . O M F `.T.T.T.(.L r.t.4XMXGXJXGXGXDXHXFXAXSXmXkXfXhXfXsX",
". + # # # $ + 3 # q & 0 7 $ x z.@ 8 e + t ~ ! + ( ,.,.O.( * . . . .   X X o   G.7.T.P.v.r.t.t.OXMXGXJXGXJXFXAXAXFXAXvXkXfXhXfXpX",
". . 0 $ $ 3 # & + u 0 @ & u a z.3 / ( P ~ ( (   / O.#.+.~ l + # * * ; : ; O O < `.I.T.r.K t.t.oXzXVXHXDXFXFXFXFXAXBXkXlXcXcXcXpX",
"o + 0 $ @ 5 + & @ u & # . r z k.y ) ( t y ( )   3.+.#.#.y j k.[ # * * O ; o O X , ^.q.d r.w.w.D.uXBXNXFXAXAXHXAXvXBXmXbXkXcXaX:X",
"+ $ & & 3 & # 5 # q q u 5 y a z.e ( e ~ ~ ) ,.3 3.3.6.#.8 z k.:X[ 9 - # . O 1 o O F.v.J d =.r.V.C.<XjXuXNXNXlXBXBXBXbXhXdXaXgX:X",
"@ $ & # # 3 + 3 & q u 7 . e  .z.y ,.~ / / ( ) / 3.3.6.#.3 [ 9 }.!.9 - # . . ; ; *   '.S d f t.t.F.D.oXV.iXlXlXjXvXvXfXfXaX>X>X:X",
"@ 3 0 5 & & + . 3 u u 5 # ! ~ p.e ,.( ~ _ ~ ) ( 3.3.3.4.# i.a p t 9 9 + . ; O   < ;.< S H.S V N.L.M.V.r.J.J.<XuX<X,XdX5XG.:X:X;X",
"  + . $ & + a o g E  .E a ( ( p.t ) ( ( ( ( ( ( 3.3.3.~ # d v.9.7 x 8 . ;   . O   -.: : M F.'.OXG L K r.J r.OXsXA.:.M.M.M.A n.`.",
"  q a g & & | @ E  .X._ ( _ ( i.y ,.,.( ) ( ( ( 3.3.) . w = :.] t z ] k.    O o t.C % : # S '.H.L G J L K J oX6Xt.t.H H N H d L ",
"U V E E u a  .g  .' ) ) ) ) ~ i.I ,.2.( ) ( ( / ,.3.~ X w % w ^ $ 4.  &X  X ;   F.o % s = K r.V.G G H r.K H '.6XC...L L H H L H ",
"a a a g g |  .a | t y ! ) 3.x z y ) 1./ ) X.( ~ ) ) X X k = = j . %.o @X&X  . z l.  O = < m K %.s H h t.M K t.3Xr.f N s H d 1 d ",
".     . %     .   . .   7 ,.t   x + 2.( ( ) ( ~ ) j   X l . * l   E.~.[ -X~.  z.[ . % O = : w =.; d C.w.N.=.A [.S V H s M < M : ",
"                    t .   ~ t   ;X  e ,.( ( ) ( ~       D   = :./.S.`.  =X-X~.E.[ p   n . : n w , '.%XS S S 0 ,XJ d s d < g : % ",
"g E g g  .X.  3 ~ / ( 8 . ~ o   C.v.T ) ( ) ( ( l     X b = X '.'.8.-   @X-X+XE.x =   b O ; * O   6X'.  1 = d 6XB < % : f V : d ",
"@.#.7.7.7.7.3 E X.) ( !   ( y E /.  / ) ) ( ) x   w   X *.&.C F.:.l . l +Xl.E.z.* .   m . o h.j = %Xt.% ; > o 3Xd : % s | q u q ",
"g W Y W O.E 5 0 a ] ) ! . ) / (.pX  x / ) ( ! d * A.    w b j `.%.  X   p.v - X       9 o = b.G.^ [.$.. . d =.9X# 1 1 < ; 0 0 q ",
"(. X_.W g . q 4 & O.' /   ,.1.Z z   b.2 ~ 9 - : w A.  .   * . /.%.  * j z.a.  .     . k * j j.].z A.S ; ; : o OX% . % : o % & $ ",
" XXX X7.X.o g q # X.) !   e k.7     z.    . X < e.C     . * X `.=.o c b p.v     X X     = j p.].&.e.A % O X   oX; % . % q 6 0 q ",
" X X Xo.W @ f q +  .@.E   2 !.x *   c.. X X * n F w . * z - ; `.S   v z p.b     j *   v * j p.+X..C.S w . X o 4X  O . + @ Y # u ",
" XXX X7.o.f E @ + @.@.E .   ~.j 9 7 } o * > C d.F n k l z e.X `.m A ~.D p.i.  X .   [ v   [ p.+Xi.j.%.:     C.4X  X +   a q + 4 ",
"_. X X7.Q @.@.@ . X.@.f     $X! y ^ } z       C C D C n   #X* /.n <X~.p.p.z.  * j i.-     j x.@X~.+X!.= %.H.4X[.    .   + + .   ",
" X X Xu.o.@.W @   @.@.g     $X^ x [ !.&.o ; ; ;   n C n   wXB.`.N 0XD.d.p.z.  i.v   X       z.*X+X@X{.S.#   Z [   .     . . . . ",
" XXX X7.#. .@.@ . E E u   ..$X[ x [ ~.:.X . ; * X : A :   wXB.`.M.2XK.N.p.i.w [ o   - m   .   p.z.[                     . +     ",
" XXX_.7.@.@.E o . E X.u   g.$X} ^ p.@Xp.c k k : k N m n   yXB.`.B.7X,XA.z.p.i.p.X   = C .     x.j                 .   .         ",
"XX X Xq.W @.E     E  .3   :.{.c.x c.$Xp.k l d.k F m n D   6Xf [.H.2X2XG.z.m.[ a.l   O m ;     m.                  .     + +   . ",
" X X Xq.6.@.@.    X.@.7 X ^ {.n.Z f.+Xg.n k C C F A m n   ,X=.'.H.,X7XA.z.z.v z.b.  . b >   o j.                  +     .       ",
" XXX Xq.7.@.@.&   q. .+   Z {./.C %.n., a.@Xs.m K n A m o oXS /.H.7XtXF p.z.a.m.- X   D > ; O c .             .   . . .         ",
"XXXX_.u.6.@.@.@.q u.| #   m {./.c :.d.+X*X*Xk.F K K F C O ].F.oX,XqXqXB.z.z.+X, ; - - . O X X l + .         . .   .           . ",
".XXX X7.7.@.@.@.f u.E o . : [.=.-.V n.!.*X*X*.-.F K D N < b.#X[.,XtXyXB.p.g.n.O k n ; X = O k C =           . + +     .       @ ",
" XXX Xu.7.W @.@.E u. .o   % @ 5 %.4 I ! 6 2 %.F H F d.< M k b.'.B.L   M.b.@Xc - O k * l : . F l 7   % +   # o . . .           . ",
"Y.|.Q.7.o.@.@.W E u.W     . 0 u [ ..T / ' { } >.m F d.h = `.B.s.h ; < D z.m., C < l k k * n F [ z .   . . + .         .         ",
"|.|.Q.Q @.5 u I.I.X.W   % % 0 r } >.:.] >.>.9.>.N M.d.O `.$.g.#XqXL.oXb m.A > 1 : k > n - k C D [     .   3             . % .   ",
"Y.Y 6 q q 7.I.2.Y Y U   .   q V } %.{ { ] >.8.>.V =.;.G F.a.&.G.B.V.1 D !.* > D X l n c l C - &.[         0         .   q u .   ",
"Y.2.I Y u 2.R I r &   &   X d p a.^ ( O.:.>.{ { =.-.-.M &.H m M.M.L M b b.C d.b o D O D C l w &.[   .     +         + . a g #   ",
"Y.Q T o.r R T 4 <.<.X.u 0 O   o k.x w : V Z O.:.x F -.M L h M.].L.M.h d.w i.;.&.< l n s.c l k $.b                   .   q g @   ",
"Y.Q o.Q i T T 6 ` T r u | g @.a l...+.O.^ M , h M M.-.L [.%XB.7XtXoXN d.1 d.d.C G C k -.b l w D C   .     o             0 5 +   ",
"Y.<.<.` r R R r R <.r W q u #.U k.} +. .8.9.9.c.:.D N.yXyX5X,XtXqX2XA F C -.*.m ; k n b b C k D Z   .       .           5 5 @   ",
"Q.1.R <.I T R i ` o.U u i E O. .k.c.6.O.:.$ A V Z.e.D.yXyX9X,X7X2X2XV.G d.h.d.m l F l D b b &.w m           + . .       + u     ",
"Q.2.R <.U R R I ` ` Y u U ..o.#.k.c.6.7...M d M 9.M.G.yXyX5X1X7X2X7X#X, s.d.-.F d.D k s.D C D w m           + + $       . 5     ",
"Y.2.R R Y R T I ` _ Y U Y Y 6.T l.} 6.4.' A ; y.c.F G.wX5X5X2X2X7X2X7X  j.d.s.&.D s.c s.l D D k ;       .       4       @ u     ",
"Y.P.T Q I R R r Y Y ` U T Y <.` k.c.6.9.8.8.B v.#.K A.yX5X9X1X,XqX,XqXM B.h.d.d.b d.b &.b [ $.m . % H q .                 .     ",
"Q.I.R T T R R I R T ` Y Y Y ` 6.l.9.9.4.8.v.t.8.y.e.].yX9XwX,X,XqX2X9XL h.f.s.d.b D Z b -.&.&.c       + . 3 4 4 r a g r @ +   3 ",
"Y.I.R R I R T I T T ` U X.E #.6.k.} 3.5.] { { 9.y.e.,X9X7XqX2X,XtX,X7Xd.d.f.d.D -.D c *.&.j   : .     +         3 +   2 Y Q T R ",
"Y.I.R R I T T y T ` ` U T  .6.` l.} _ 3.] >.8.{ 8.t ,XyX7XqX7X7XqX7XqXM.d.d.s.-.d.D b &.w     : X     @         4 3   4 I T U R ",
"Y.U.R R I R T r a T ` W Y U 6.` k.c.6.3.) 5.9.{ >._ 3XeX2X7X0X2XoX1X7XB.&.h.f.b d.Z C j.  . O O .               4 +   3 I R i T ",
"Y.U.R R I R _ r 4 T ` I Y U <.o.c.p.<.1.8.9.4.9.5./ 5XqXqX7X0X<XoX,X9XB.-.s.h.s.s.b b s.C -   . .               + .   4 I T I T ",
"Y.U.Q R I R Q 6 q R R Y Y w.6.6.k.x.6.] 3.( 4.4.9.I 9XqX0X7X7X,X2X,X,XJ.d.f.s.d.&.s.D i.s.c     . .             4     4 / ( U / ",
"Y.U.Q I   U.T 4 T T T 4 Y W 6.<.4.l.o.4.) 4.{ ) 5.r yXwX7X1X7X9X9X9X,XB.s.h.s.i.s.s.b s.s.&.                  3 r +   4 / ) y _ ",
"U.<.U r I R T 4 T T I 3 Y U ` <.} x.) 3.) { 8.] 4.r tXqX9XqXqXtX9X9X7XG.&.f.s.s.s.s.s.i.s.s.                  3 r 3   t ) ,.I ` ",
"R T T ( ( / T 3 I R U 4 Y I <.<.} x.] 4.( ( ) 4.5.C.yX7XtXqXyXtXqX9XtXH.c f.s.s.i.s.s.f.*.b .                 # 4 4   y ) ,.T <.",
"` ,./ y 3 +   + 4 + 3 4 U 6 <.7.' l.( ) ' ) ] ,.4.F.yXeXtXeXtXwXwXqXtX#Xk j.f.s.j.f.s.f.i.b     .               y 8   t / R I ,.",
"y e         4 + 3 +   . U U i T P x.( ) ) ) ) 5.3.H.tXtX7XtXtXtXyXtXtX#X> h.f.j.s.s.j.j.j.D c #               . ! e . y ` 1.T R ",
"  t + # # + y @ e . 7 t . r T P 2 F.~ ( ( 3.{ ) 4.[.wXtX7XqXyXtXwXqXwX5X, f.f.j.f.s.j.b.j.Z :.l               $ P y   ! ( ` Y / ",
"8 . . . . . . @ 3     8 # y ! Y 6 x.$ t ~ 4.( ) 4.].9XtX7XtXtXtXwXtXwX9XX i.f.f.f.f.j.j.g.b %.9               8 8 9 . y I / T ` ",
"    $         3 . + e t y / ~ U e z.# # ; $ y ( ) #X9X9X9XtXtXtXwXtXqXwXc f.f.f.f.f.j.j.f.z { q               8 8 9 . 8 t Y P <.",
". .         . . +   $ t ~ I t     p.O + y . . o - 5X9XqX9XtXtXtXwXtXtX9XF f.s.f.f.f.j.j.s.c :.9               $ 8 8 + t e P I 1."
};
