/* XPM */
static char *_34bb7e523b74accc80ebbca4c35b252UA1yrYBxYtk8cvB0[] = {
/* columns rows colors chars-per-pixel */
"64 64 256 2 ",
"   c #010001",
".  c #0B0203",
"X  c #02030C",
"o  c #0A080A",
"O  c #120403",
"+  c #190707",
"@  c #1B0B0D",
"#  c #0B1307",
"$  c #040412",
"%  c #050A13",
"&  c #0B0914",
"*  c #060719",
"=  c #09071B",
"-  c #0B0A1B",
";  c #130B15",
":  c #1D0B14",
">  c #170B19",
",  c #09121B",
"<  c #18141A",
"1  c #220404",
"2  c #270709",
"3  c #37080A",
"4  c #291409",
"5  c #351509",
"6  c #260B16",
"7  c #380B17",
"8  c #24121C",
"9  c #29151A",
"0  c #381716",
"q  c #202300",
"w  c #3B2219",
"e  c #040826",
"r  c #0C0B23",
"t  c #0D0C2A",
"y  c #130E24",
"u  c #120D2C",
"i  c #0A1629",
"p  c #141223",
"a  c #1C1523",
"s  c #15122C",
"d  c #19162B",
"f  c #151B29",
"g  c #1C1A2C",
"h  c #070836",
"j  c #140D35",
"k  c #0C1435",
"l  c #151334",
"z  c #1B1534",
"x  c #1D1B34",
"c  c #19163A",
"v  c #320D22",
"b  c #2B1423",
"n  c #261827",
"m  c #2B1C2B",
"M  c #3B1422",
"N  c #381927",
"B  c #341A2C",
"V  c #221C34",
"C  c #281937",
"Z  c #2C1B34",
"A  c #231C3B",
"S  c #341B33",
"D  c #391D38",
"F  c #13212F",
"G  c #17253A",
"H  c #29222A",
"J  c #372526",
"K  c #33222D",
"L  c #3A242D",
"P  c #2A2337",
"I  c #25223C",
"U  c #342534",
"Y  c #3B2433",
"T  c #33223C",
"R  c #3B2838",
"E  c #363639",
"W  c #460B0A",
"Q  c #4E130D",
"!  c #480919",
"~  c #58071A",
"^  c #491619",
"/  c #571318",
"(  c #63110D",
")  c #66181A",
"_  c #771818",
"`  c #4C260D",
"'  c #452316",
"]  c #582A19",
"[  c #76281C",
"{  c #69321E",
"}  c #4D0D27",
"|  c #491827",
" . c #441C2D",
".. c #561928",
"X. c #461C35",
"o. c #581A38",
"O. c #730A2C",
"+. c #671927",
"@. c #771A27",
"#. c #671938",
"$. c #48272A",
"%. c #572828",
"&. c #5C312B",
"*. c #472737",
"=. c #432C3C",
"-. c #582637",
";. c #4B313B",
":. c #593639",
">. c #662729",
",. c #673525",
"<. c #783925",
"1. c #682536",
"2. c #762F31",
"3. c #762839",
"4. c #68383B",
"5. c #5B4234",
"6. c #794930",
"7. c #1B1542",
"8. c #1A1946",
"9. c #0A1450",
"0. c #1E1A52",
"q. c #221B43",
"w. c #22174B",
"e. c #231C4C",
"r. c #3A1F4D",
"t. c #251B56",
"y. c #231E5B",
"u. c #0D2848",
"i. c #1B2C45",
"p. c #192A48",
"a. c #15344A",
"s. c #1D324C",
"d. c #1B2659",
"f. c #1C3656",
"g. c #2C2542",
"h. c #282647",
"j. c #2D2B4B",
"k. c #332343",
"l. c #362948",
"z. c #22314E",
"x. c #383549",
"c. c #282758",
"v. c #332B58",
"b. c #253858",
"n. c #243C5B",
"m. c #363358",
"M. c #161B68",
"N. c #281E63",
"B. c #1E2D6A",
"V. c #292767",
"C. c #263668",
"Z. c #3A3864",
"A. c #332775",
"S. c #312A73",
"D. c #2A3675",
"F. c #4A1C47",
"G. c #731A44",
"H. c #462948",
"J. c #572A46",
"K. c #4A3548",
"L. c #523444",
"P. c #593949",
"I. c #4E2954",
"U. c #4B3855",
"Y. c #573953",
"T. c #652845",
"R. c #673847",
"E. c #773747",
"W. c #6F3050",
"Q. c #463C67",
"!. c #583866",
"~. c #4E3B72",
"^. c #663C73",
"/. c #2B435E",
"(. c #284569",
"). c #324D76",
"_. c #584250",
"`. c #68464A",
"'. c #75424B",
"]. c #694557",
"[. c #774658",
"{. c #735355",
"}. c #474463",
"|. c #564364",
" X c #4C477A",
".X c #564D75",
"XX c #734E6B",
"oX c #8C1618",
"OX c #B01217",
"+X c #84291D",
"@X c #841824",
"#X c #8B1136",
"$X c #8B2E32",
"%X c #AA2733",
"&X c #D21216",
"*X c #E70C0F",
"=X c #864329",
"-X c #924936",
";X c #A95737",
":X c #BC613A",
">X c #8B304D",
",X c #912050",
"<X c #863954",
"1X c #AE3451",
"2X c #B43065",
"3X c #C12754",
"4X c #C9376C",
"5X c #8C4F54",
"6X c #874958",
"7X c #B14A4D",
"8X c #AF635B",
"9X c #885767",
"0X c #8B536D",
"qX c #945B66",
"wX c #AA497B",
"eX c #946673",
"rX c #C95758",
"tX c #CE6844",
"yX c #D24E68",
"uX c #E75470",
"iX c #362C88",
"pX c #343A8C",
"aX c #3C3498",
"sX c #3F36A8",
"dX c #443B85",
"fX c #4A328C",
"gX c #44369C",
"hX c #4438AA",
"jX c #463CB5",
"kX c #5339BB",
"lX c #32518B",
"zX c #356993",
"xX c #344CAA",
"cX c #3C79AC",
"vX c #524F8D",
"bX c #595696",
"nX c #695091",
"mX c #6C6797",
"MX c #4E4FB5",
"NX c #6C56A7",
"BX c #4E76AE",
"VX c #6E69AE",
"CX c #5A3FC9",
"ZX c #4D5AC6",
"AX c #466CD2",
"SX c #6E77C3",
"DX c #885CB4",
"FX c #8468BB",
"GX c #C07484",
"HX c #906AC7",
"JX c #B074E8",
"KX c #5693D7",
"LX c #7084D0",
"PX c #569AE5",
"IX c #7292E6",
"UX c #8787DA",
/* pixels */
"r r X     . ;.;.X s k i ,           O J     % n U T  .6 % b.).BXPXPXPXPXKXKXKXKXcXx.).cXcXzX(.x.E < y.iX~.w.w.vXvXe.G < s u u u ",
"u r r r e $ ;.L.* i i ,             o *.P.P.- i R B N 7 @ P x.BXLXSXBXBXPXIXIXIXKXx.}.BXBXcXn.K.P P t.A.y.u A.vXm.a g x z u j s ",
"8.  = t t $ K K = * X X               < `.9XP.i Z | ! 6 @ ;.`.{.eXeXqX.XLXIXUXIXLX_.|.SX).zXb.-.9 Z r.N.w.l r.t.a g g x C j z j ",
"0.    X X   N L = X                     H _.{.K.% ~ } 1 7 :.`.5.6.5X6.5..XSXUXIXbXE }.mX|.zXx.%.Y V t.N.w.u y s d d d d u c j $ ",
"V.t t $     L L.L                         < `.XXL.7 ~ ! v -.P.:.`.{.5.R |.mXVXSXVX XbXBX.X.XP  .*.I c.N.w.= & y y r - o $ r u ~.",
"V.7.7.8.c e L Y.L.                          f ].9XP.9 ~ ..R.R.:.`.:.;.;._..XDXnX.X{.VXLXvX).B o.B P c.A.t.X r 7.q.q.q.e.A $ X m.",
"c.l q.j.c.c.C L.K.                        % , H XXeX'.E.<X<XR.$.&.$.=.P.=.K..X_.{.5.mXVX}._.M o.2 P z.V.A.t.j j 7.q.q.e.q.j.g.- ",
"V.A g.v.v.V.h L.].                        X i   H 9X[.E.<XE.| / / ..-.;.=.E w _._.5.5.|._.vXV | n n i.c.A.A.w.= u j s z A m.m.I ",
"V.j.j.c.V.t.e P.].X               2 ! 2   . X X   *.:.-.1.../ @.@.@X$X%.-.*.L =.J U.mXFXbXLXa.J U < r c w.w.j u C q.z q.z q.h.q.",
"V.v.c.V.y.0.e -.'.U               2 #X#.} N : .    .$.| >.@.@.@.@X@X@.%.| $.K 0 ;.K.mXFXVXLXx.n I ,   $ = & = u c 7.z q.j n n V ",
"v.j.c.N.N.7.X &.9X].          X   O #X$XE.R.-.*.6 N -.%.@.@X_ _ ( / / ( ( ..0 J.;.J |.|.VXVXx.H G &   = u = = j c 7.z q.c h.m.m.",
"m.j.h.N.N.8.e *.9XXX<         X   X & n o.R.E.E.-.$.$...[ OXOXoX) ( OXOXoX/ *.J.H.nXDXnXVXvXU P   . . N.iXA.w.j C q.z q.w.dXVXNX",
"j.h.q.y.V.0.y.9.XXeX< $           X     . < %.R.%.P.4.>.@X*X*XOX+.+X&X*X&X/ o.P.L.DXJXHXDXDXC       t fXkXkXfXw.c A x 7.Z.NXSXVX",
"I x 8.0.0.N.V.M.XXeXU.9.t X                   < + W.6X1._ &X*XOX+X$X&X*X&X/ ..*.I.nXJXJXJXHXk.      j iXhXCXhXw.A I x x Z.bXbXS.",
"g.h.c 0.y.y.N.9.5XrXXXM.y.- $       . O . @ 9 9 B *.>X@.) _ oX$X%X[ _ _ >.@.1.T L._.nXDXDXnXV = X   7.N.A.gXfXh.I I A I g I g.& ",
"j.l.G 8.0.N.M.y.XXqXXX!.y.h 7.r     6 0 : O       +.1.%.+.@.@.1.o.o.+.....X.H.b n b ; 9 S.y.V.t.r X 7.iXiXgXaXt.a I x I d   & j.",
"v.m.v.c.0.0.M.~.XX[.R.l.t.7.7.j X         . 2 7 N | ..6 + _ $X2XwX<X! ..M  .Z . =.!.H.6XW.j.Z.8.$   j iXhXhXiXj d x V I d X     ",
"c.V.c.y.y.t.v.[.9X[.L.H.7.e l r X X X   . } G.#XT. .@ . O +.$X5X<X>X-.X. .-.8 b H.I.K.GX6XN h.r     j iXjXhXA.0.c.m.m.m.v.h.< X ",
"V.V.V.t.M.I.W.4.5X0X[.J.k e r e u $ X . 1.2X,XR.E.R.T.N o 0 1.<X>X1.T.Y.W.K.N K !.XXY.5XE.9X'.N     h iXhXjXaX7.u z s v.vXvX-   ",
"C.d.8.9.M.T.+.>.'.XXW.Y.V * t j e e ^ <.7X1Xo.L.6X6XR.-.:.[.6X[.:.J.J.H.I.E.R.U |.I.;.5X:.XXGX].&   7.iXiXaXiXw.z s s d h.m.g f ",
"d.8.l h =.3.#X@XE.[.].P.K   * < ,.6.;X7X=X-.r.=._.eX0X6X9XeX0XL.@ m n y x.].eXP.k.U 5.qX:.. nX].L t.iXaXiXiXV.t.t.c s z v. X X X",
"h.l s e Y 3.#X#X$X$XR.R.<   1 { -X-X-X=X3.#.H.k.=.P.{.`.].[.;.> s k.g.- g.XXXXXXT :.`.9X;.  _.`.P.S.aXhXsXaXA.S.iXy.p c Z.vX X X",
"j.p , * 1.3.O.#X#X$X%.0     4 ] ] J ] T.3.#.I.F.x g.H.b # % a D D k.R n < $.`.XX].:.{.9X$.  Y.5.R.S.aXjXjXsXaXS.V.w.u x Z.bXbXS.",
"j.g < e -.@.#XO.O./ w         + w ] ..J.#...:.I.g.x.x F.>X,X} X m m L H , # :._.XXeXeX{.' p R 4.4.dXjXsXiXiXaXaXV.u l 8.~.VXVX~.",
"m.h.I G k.3.#XO.O.~ 0 $   + @ 4 ] 6.$.*.>./ &.:.R v.u.W.2X2X2XG.*   X M >XrX,Xx.{.qX5X&.J H K ;.4.c.A.N.V.v.t.0.l y A A e.m.m.A ",
"}.j.h.h.h.#.O.~ ~ +.P.R.#     ] -X5.L w ,.%.<.] $.U.e.G.,X2X4X2X}   ` ;XuXuX4XP.].:.$.J U U L ;.P.Z * j. Xm.H V y p e.h.z q.V.N.",
"}.j.h.h.8.#.~ 1 W ^ '.qXK ` 6.5.:.U =.' $.&.<.] =.D r 7 1X,XG.2X4XG.7XuXuXyX>X2X_.9 X a $.< R =.L.:.5 w.D.bXvXdXV.e.q.c g A N.A.",
"}.j.I I u.F.1.@.O.+.5XeXR ` :.L H n E H L ;.,.` Y | 2   #.... ,X4XyXyX5X5XyXyX1.H ;.H < w w J =.;.;.iXhXaXhXhXhXgXS.d r y z q.e.",
"}.j.j.j.u.F.T.$X@XO.5XqXP.O U n < % f n ;.L.*.w *.%.3 X     X #.4XuXyX$X%.1X1Xv # 9 K 9 < $.n K.L.;.dXMXjXsXsXhXaX8.& t u s x A ",
"Z.x.j.h.8.r.4.&.$...'.qX{.  H n x a a w K.K.&.' ;.1.6 3 ~ ^ #X3X4X4X4XrX7X1X-X7     ; < % R E U H.L.Q.sXjXjXjXMXV.$ j k r u u l ",
"Z.j.j.h.k z &.P.T g :.qXXX, U Y j.P k.L K.U.%.] R.1.~ %X3X;XyXuX2X2.7XuXrXrXrX;X    4 0   P U P T =.r.aXjXjXNXMXdXN.y.7.. X & * ",
"m.I x f $   $.:.U I P.qXqXI H R P H T U Y.U.%.] ;.%.@.1X1X7XyX7X..q -XrX5X$XrXtX9 b &.,.' *.< F T n e.sXjXMXMXbXpXA.A.N.0.8.7.7.",
"m.p       . J E P j._.9X9Xx.< H P f n b *.k.%.| N ' >.-X$.,.rX-X  # -XrXE.} %XtXR.;.'.R.R.4.$.%.L 5 l.hXsXhXpXV.y.A.S.V.A.A.N.y.",
"j.-         L K.x.j.K.5X9XK.x H I g.a n R D  .7 L ;.w =X-X;X:X=X    >.rXyX3X1X{.{.W.[.R.].<.-X<XY W F.gXaXiXN.h j t.t.0.V.V.8.j ",
"I %         L P.P.l.Y '.eX_.i G x j.k R U T } @ K R.&.{ :XtX;X]     4 2.3X2X>X9X9X[.[.W.`.7X1X<X3.~ N.aXD.c - * = j j $ l l     ",
"k           =.Y.=.i 5 5.9X5X6.,.:.L R.;.a m S 6 *.R.4.4.,.w     .       @ ..R.6X9X[.R.&.[.>X1.G.#X+.m.lXf., ,     r l - c l     ",
"s *         Y *.o 4 <.-X:X:X;X=X5X5X0X*.R S B !  .9 '.[.;.@ + @ + .       X $.R.[.;.$.;.W.o.#.} T.} z.(.f.      o , r $ t s X   ",
"k ,         S Y   { :XtX:X;X,.4 { 8XJ.B a  .| ! | B *.`.R.:.$.` 4 .       O 5 N 0 5 4.<XG.} } > F.v z.(.a.  i G p.d.G c 8.0.G G ",
"i *         N m 5 =X;X{ +X{ ' @   . 5 : 8 Y N . V T H , _.XXE.$.w +     . 5 [ # w <.1X#XO.7 q.y F.} c.C.u.F (.).D.).n.C.D.V.C.n.",
"*           N N ` <.=X=X6.] w ' 4 4 ' 6 9 0 5 @ Z m - - e H.Y.P.:.w 4 + 2 ) +X  4 { $XO.} v k.n F.} k.b.G f.).lXn.p   # g G p & ",
"            b b Q <.6.=X<.] ' ] 0 4 ' 6 @ 5 0 @ X p g p & , I }.|.;.` ` ] +X<.o 4 ,.=X&.n C S v r.X.R m.i.F (.).z.G p.z.b.b.i.c.",
"        X   N n 3 { <.<.<.$.4 ' ' 5 4 @ < @ 4 6 O . & > o   n g.U._.4.] { +X{   5 / 2.$.V V M S D X.-.m.f.G n.).z.i.n.b.b.b.f.b.",
"X       X   8 8 7 ..&.-.K.;.8 @ ' ` ] ^ N N . ; ! 0 : a > < m a < *.&.] _ _ 0 2 7 ~ 1.B p g 0 S X.} T.Q.a., i.n.z.i.n.s.s.s.s.s.",
"X       X X o . 6  .N *.P.K.H < + ' [ )  .| 2 . > >.,.| , g I n H U $.[ +X~ 2 / 7 +.D V & *.! X.F.} #.(.n.i G z.i.i.n.z.s.s.i.s.",
"p       X X .   7 0 8 N *.;.H @ . W ) ) | / 3 2 8 X.-.;.H % E ;.R $.) _ _ 1 3 7 ~ o.l.C l.X.3 D F.7 X.C.f.& z.b.F i.n.z.z.i.i.G ",
"<       $ X .   3 W X 8 N L 8     1 3 ) %. .2 ~ +.F.J.1.] w < < 0 ) _ _ W O 3 + 7 S l.H.k.M @ b D ^ -.Z.f.$ s.n.f i.C.h.h.i.i.G ",
"f       X X . . W W   : 9 8 6 3 . . 6 W *.X.X ~ T.T.%.{ [ <.{ ' ] { [ _ 1 3 O 3 > k.H.k.R $.4 ; %.~ o.Q.b.$ i.b.G p.C.b.C.b.f.s.",
"X               + 2 o 6 b > : 6 .   : W v *.M 7 | F. .7 5 w w w { <.[ W 3 + 3 W d H.F.Z P.$.9 *./ ~ S f.s.  s.n.f r F c i f i t ",
",           O O 3 / *.m b 8 8 2 2 .   2 : b #.O.! 6 ; X 3 1 1 { +X<.W 3 1 3 / > r.H.C S n |  .B M  .k.b.a.F n.(.F X f % o * $ X ",
"<           1 + W 1.J.X.7 8 > O 3 6         7 +.+.~ 1   W W ( +X<.' W W 1 Q / l k.q.d n 8 } D S X.o.k.n.a.F n.n.i k f.& % * * $ ",
"<           .   W +.D  ...7 X   + D v :   o o 7 +.o.M 8 } >.@.) Q ( Q 1 3 | b k.h.8  .X.o.X.D H.o.} *.m.a., a.n.G , i o % $ & $ ",
"a               3 W , M +./   &   b X.D b . 8 ; B X.-.X.-.1.-...+./ 2 1 0 D C j.C 7  .*. .m D F.T.#.J./.a.o G n.G ,     $ & - - ",
"H               3 Q $ 3 ) +.X & X . *.*.D n > 8 < v o.J.J.*.-.1.%.3 + 9 Z A g.l.M %.2 / 3 T I.G.o.v X.C.f.i a.n.F   i f $ * = - ",
"E               W +.8 3 ) 1.6 X   . 8 B C Z n : . . 6 N B B ..-.| 2 2 B P A v.Z 3 ..! _ ..J.T...v O l B.d.* i.f.i   , i & * & = ",
"E % % X         Q @. .2 ) +.+       X o & > > n :     o O o : 7 M N S g.I D l.& 0 ..} oX3.*.| 7 $   h B.B.* i.b.e   X & $ = r r ",
"x.G i $         W @.-.6 / / > l.I     . 6 X   8 S S n o   : v  . .X.H.g.C X.b . M o.8 _ -. .6 X X   k C.V.% c.v.- % $ $ = r u y ",
"x.8.k * X       ! >.o.@ / ^ x nXQ.X   2 7 + X X B F.l.D D *.1.J.J.H.l.P N |   . 6 7   |  .7 o X     k D.V.= c.V.$ $ % X - r r - ",
"x.* 7.c $       v -.N . 7 3 A nXXX  u C 1 W ^ N z Z S D H.I.J.T.J.I.k.| >.+       n z N Z *   r ,   h B.d.= p.c.k -   X $ X $ = ",
"E   e.8.=       M *.8   +   n nX0X$ j t.y ! / } l.A - s V D H.-.H.l.k W [   X > S F.fXI.H.y - e.~.Z e B.V.l e l 8.l e X $ $ $ = ",
"x.  x x &       3 W     X   6 W.wX6 s y.j .   3 F.r.C k.Z = - n P g   2 ~ + . S I.J.DX^.!.C !.^.NXH.X B.C.c.p.u X k k r j u = $ ",
"}.i.H , o X     3 3         o J.wX..d.c.w.i , 2 v Z D I.I.q.a s V ; :       ; H.^.o.nX!.nXC NXNXNX~.N.B.B.C.V.d.  X e t 7.u $ $ ",
".X.Xj.# & $ X   1 3            .wXfXxXlX).(.).f.< % C l.H.g.n n ; b R 8 .   9.lXnX^.MXdXMXV.NXZXZXZXxXpXd.8.8.c     , e         ",
"mXmXm.  G c.c   + 1       X $ 8.vXZXAXcXBXcXBXzXG   X b F.T d 8 : V H.m O 1 0.ZXxXQ.ZXD.MXV.xXZXxXxXpXlXC.k         t k     $ X ",
"UXVX}.P }.vX~.. O +       X d.pXxXxXzXzXzX).zX(.G r 2 1 v S 8 n n n U.x.6 N c B.h.P B.d.c k d.C.d.X   iXD.8.%         X     X X "
};
