/* XPM */
static char *_b870ceca56947ace5b663fe29807bc0qQDiyIcaR9qTGVCb[] = {
/* columns rows colors chars-per-pixel */
"64 64 245 2 ",
"   c #010100",
".  c #0B0501",
"X  c #070802",
"o  c #0C0A02",
"O  c #120401",
"+  c #1B0306",
"@  c #140B02",
"#  c #1B0D02",
"$  c #0F1201",
"%  c #141202",
"&  c #1C1303",
"*  c #1D1B02",
"=  c #1B1A07",
"-  c #270B04",
";  c #241403",
":  c #2A1502",
">  c #241B03",
",  c #2C1B04",
"<  c #231B09",
"1  c #2C1C09",
"2  c #331C04",
"3  c #3A1D03",
"4  c #351B08",
"5  c #2B0211",
"6  c #3A0116",
"7  c #1F2006",
"8  c #242202",
"9  c #2C2304",
"0  c #262807",
"q  c #2C2B02",
"w  c #26230A",
"e  c #2D2309",
"r  c #2B2F0A",
"t  c #2C2B0D",
"y  c #332303",
"u  c #3C2305",
"i  c #332B04",
"p  c #3B2C05",
"a  c #332409",
"s  c #3C2508",
"d  c #332B0A",
"f  c #3B2C0B",
"g  c #333405",
"h  c #3D3305",
"j  c #3B3B05",
"k  c #3D330B",
"l  c #38370A",
"z  c #352C16",
"x  c #383514",
"c  c #451B02",
"v  c #42051B",
"b  c #4F1110",
"n  c #422504",
"m  c #472507",
"M  c #442B05",
"N  c #4B2B04",
"B  c #452A0A",
"V  c #4C2D0A",
"C  c #562905",
"Z  c #522D04",
"A  c #433305",
"S  c #4C3305",
"D  c #4C3C05",
"F  c #44330C",
"G  c #4A340A",
"H  c #453A0B",
"J  c #483B08",
"K  c #523204",
"L  c #5C3304",
"P  c #563A06",
"I  c #5B3C05",
"U  c #55340A",
"Y  c #533C0B",
"T  c #5D3C0C",
"R  c #443511",
"E  c #433A12",
"W  c #513F11",
"Q  c #752B02",
"!  c #623706",
"~  c #643A04",
"^  c #6B3C04",
"/  c #623B0A",
"(  c #723D04",
")  c #4E0121",
"_  c #5A0327",
"`  c #5B0335",
"'  c #65032A",
"]  c #69022D",
"[  c #770124",
"{  c #6C0233",
"}  c #720233",
"|  c #7C0137",
" . c #7E0139",
".. c #69103E",
"X. c #3E410C",
"o. c #444304",
"O. c #4B4807",
"+. c #44420A",
"@. c #4D430B",
"#. c #554605",
"$. c #5B4304",
"%. c #5D4B04",
"&. c #52440C",
"*. c #5C430A",
"=. c #544B0D",
"-. c #5C4D0C",
";. c #4C5307",
":. c #5C5C05",
">. c #555608",
",. c #5C520B",
"<. c #5B5C0C",
"1. c #494612",
"2. c #554C13",
"3. c #584814",
"4. c #595512",
"5. c #624D05",
"6. c #674708",
"7. c #744304",
"8. c #774A07",
"9. c #645205",
"0. c #61540D",
"q. c #675908",
"w. c #6B5B0C",
"e. c #765807",
"r. c #684B17",
"t. c #665714",
"y. c #725D13",
"u. c #5C6406",
"i. c #5B6214",
"p. c #69660A",
"a. c #76670A",
"s. c #6C7508",
"d. c #757409",
"f. c #7B7B0B",
"g. c #696915",
"h. c #786813",
"j. c #6C7313",
"k. c #757715",
"l. c #524F2D",
"z. c #565832",
"x. c #655335",
"c. c #736728",
"v. c #736934",
"b. c #9D0000",
"n. c #9D020B",
"m. c #9D0014",
"M. c #9B001D",
"N. c #A00001",
"B. c #890229",
"V. c #9B0023",
"C. c #92022D",
"Z. c #9A002C",
"A. c #86013A",
"S. c #960035",
"D. c #9C0031",
"F. c #95003D",
"G. c #99003A",
"H. c #844B04",
"J. c #864B06",
"K. c #914F02",
"L. c #865607",
"P. c #925104",
"I. c #9D5601",
"U. c #935B03",
"Y. c #9A5A06",
"T. c #935C10",
"R. c #A05600",
"E. c #A35C02",
"W. c #A85F02",
"Q. c #84640B",
"!. c #886809",
"~. c #9A6408",
"^. c #88760A",
"/. c #847311",
"(. c #8C7010",
"). c #A56406",
"_. c #AC6403",
"`. c #AA6B0B",
"'. c #B46A03",
"]. c #B86F05",
"[. c #AA790C",
"{. c #B97608",
"}. c #A36D10",
"|. c #B57913",
" X c #8E792C",
".X c #C37803",
"XX c #C47F12",
"oX c #890242",
"OX c #930041",
"+X c #990043",
"@X c #96004C",
"#X c #970055",
"$X c #A30055",
"%X c #837743",
"&X c #7C8111",
"*X c #878709",
"=X c #99890A",
"-X c #879508",
";X c #969708",
":X c #968614",
">X c #869113",
",X c #989714",
"<X c #A7860C",
"1X c #BC860B",
"2X c #A5950B",
"3X c #BD8412",
"4X c #8EA20A",
"5X c #9AA609",
"6X c #99A711",
"7X c #A7AB0D",
"8X c #B6A908",
"9X c #B9BA08",
"0X c #A7B011",
"qX c #AB922B",
"wX c #BBA932",
"eX c #CD8205",
"rX c #C9890B",
"tX c #D78A04",
"yX c #D89508",
"uX c #CE9113",
"iX c #E79802",
"pX c #CFB50C",
"aX c #EBA707",
"sX c #F4A705",
"dX c #F7B605",
"fX c #FEB502",
"gX c #B8C60A",
"hX c #BED70D",
"jX c #CACB0A",
"kX c #D7D70C",
"lX c #E1DB08",
"zX c #EAEB08",
"xX c #FFFF00",
"cX c #F9F909",
"vX c #8D814A",
"bX c #ADA552",
"nX c #B09760",
"mX c #ADAB6C",
"MX c #B6B46A",
"NX c #C8B955",
"BX c #C8B570",
"VX c #CDC26A",
"CX c #C8C97C",
"ZX c #CFCA8C",
"AX c #E1D69F",
/* pixels */
"D.D.D.D.D.D.D.D.D.F.OXOXOXOXOXOX_ c -   e.*.2 . @   / K.H.E._..X].P.H.8.J.L m , &.* O.r < n _ OXOXOXOXOXOXOXF.C.b.b.b.b.b.b.b.b.",
"D.Z.D.G.+XD.G.F.+XD.OXOXOXOXOX@X..c - . Q s 3.  @   ^ Y.K.W..X.X].|.{.T.J.9.d a.  l O.r # M ) OXOXOXOXOXOXOXF.n.b.b.b.b.b.b.b.b.",
"D.D.D.F.G.S.F.F.OXOXOXOXOXOX+X@X{ C 3   Q m 4.  :   ^ K.`.tXiXtXeX`.|.].8.a.y @.  8 +.t # N v OXOXOXOXOXOX@XF.V.D.M.b.b.b.N.N.b.",
"D.+X#X@X+XF.G.S.F.OXOXOXOXOXOX+X{ c 4 . Q W l V u B m P.rXtXiXsXiX|.`.H.T.^ Z i @ * o.t   Z v +XOXOXOXOXOXOXOXOXOXS.b.b.b.b.b.b.",
"D.D.#X#XF.OXF.OXOXOXOXOXOXOXOX+X) L : 3 ( W     =.2 H.{.|.rXdXaXsXrX`.{.~.! B p >.o.o.w   U - +XOXOXOXOXOXOXOXOXF.S.b.b.b.b.N.b.",
"D.D.+X+XOXOXOXOXOXOXOXOXOXOX+X .v C - n ( 4.<.H q.; / `.aX<X9XjXgX<XyXyX.X7.n o.;.>.q.w   N 1 } @XOXOXOXOXOXOXOXOXS.b.b.b.b.N.b.",
"D.D.D.G.OXOXOXG.G.OXOXOXOXOXoX. # C 1 B 8.r.    :.2 e.sX/.cXxXxXxXcX:XsXeX6.. f.    6.t   m :   6 A.OXOXOXOXF.OXOXF.b.b.b.b.b.b.",
"D.D.D.D.F.F.S.S.OXOXOXOXOXOX}     m :   /.<.  i.5.3 e.rXkXxXxXxXxXxXkX1X|.~.*Xo.    q.0   Z 2     6 OXOXOXOXOXF.m.V.b.b.b.b.b.b.",
"D.D.D.+XOX+XD.D.F.D.F.OXOXOX]     : :   k.<.  j.d.}.~.e.cXxXxXxXxXxXcX[.dXpX-X-X*X*Xd.<   Z ,       OXOXOXOXOXOXS.V.b.b.b.b.b.b.",
"D.D.+X@XD.D.D.D.+XS.G.OXOXOX'     ; B   j.k.0 j.O.k.1X3XcXxXxXxXxXxXcXrXdXpXa.%   *XO.;   #         OXOXOXOXOXOXF.OXV.b.b.b.b.b.",
"D.D.+X+XD.D.D.D.D.Z.OXOXOXOX'       U 4.>Xk.&X&X>X;XrX<XkXxXxXxXxXxXkXaXiX).      u.%.&   .         M.OXOXOXOXS.V.M.D.b.b.b.b.b.",
"D.D.D.D.D.D.D.D.D.D.G.OXOXOX] X     L   &Xi.l u.;XzX2XfX,XzXxXcXxXzXk.yX{.8.        *X;   .       O C.OXOXOXOXOXF.m.b.b.b.b.b.b.",
"D.D.D.D.D.D.D.D.D.D.S.OXOXOX .      C   &Xu.;.X.% lX*XdXuX(.9XjX8Xa.aX3XaX~.        =X;           5 +X@XOXOXOXOXS.b.b.b.b.b.b.b.",
"D.D.D.Z.D.D.D.D.D.G.OXOXOXOXOX5     B   j.u.0 ;.1.jX0XyXsX!.dXdXfX1XaXaXyX).L ~     ,X& X         v OXF.OXOXOXOXF.m.b.b.b.b.b.b.",
"D.D.D.D.D.D.D.D.S.F.OXOXOXOXOX .+ . M   j.u.>.j +.:XlXsXyXrXfXfXfXaX3XrXeXH.L.(     -X+ >.        ) OXOXOXOXOXOXOXF.n.b.b.b.b.b.",
"D.D.D.G.D.D.OXG.OXOXOXOXOXOXOXOXoX+ M   0.A j   &X8 <XXX{.tXsXiXsXiXrXeX.X8.8.2     *X- ,         _ F.F.OXOXOXOXF.OXF.b.b.b.b.b.",
"D.D.D.G.+XG.OXOXOXOXOXOXOXOXOXOXOX} u   6.S h <.O.o.!.`.rXtXiXiXiXtXXX{.eX7.L O   * a.#           ] OXOXOXOXOXF.F.m.m.b.b.b.b.b.",
"D.G.#XG.+X+XOXOXOXOXOXOXOXOXOXOXOX .n   T N @.2.g 0.7.`.|.eXeXtXiXiX.X{..X2 I @   d.%.+            .S.V.OXOXOXOXF.M.b.b.b.b.b.b.",
"D.D.D.D.S.F.OXOXOXOXOXF.OXOXOXOXOXoXy   *.S o.2.1.j / ).tX{.].tX.X.XXX).).L m . :.f.U ; Z 2     ' OXF.F.OXOXOXOXS.b.b.b.b.b.b.b.",
"D.D.D.D.F.OXOXOXOXOXOXOXOXOXOXOXOXA.3   *.S O.x j O.*.y '.`..X'.'.W..XP.L./ @ ; ;Xq L < L ^   ] OXOXOXF.OXOXOXOXV.b.b.b.b.b.b.b.",
"D.D.D.D.D.OXOXOXOXOXOXOXOXOXOXOX@X@X5   8.G &.z ;.  V   E.).'.E.E.E._.K.H.N 6.# ;X  / : L L _ OXOXOXOXOXOXOXOXOXS.n.b.b.b.b.b.b.",
"D.D.D.D.G.OXOXOXOXOXOXOXOXOXOXOXF.$X}   8.8.Y e z   n   _.Y.'.R.R.R.R.K.H.: V + f.  / ; C L ] OXOXOXOXOXOXOXOXF.V.b.b.b.b.b.b.b.",
"D.D.D.F.OXOXOXOXOXOXOXOXOXOXOXOXOX#X@X  ~ 8.S : <   n   8._.].R.R.I.R.P.K.: ~ H.;XO.T - U L ] OXOXOX@XOXOXOXOXOXm.b.b.b.b.b.b.b.",
"D.D.D.F.OXOXOXOXOXOXOXOXOXOXOXOXOXF.OX_ / T N 1 ;   n   E.E.].R.I.R.I.P.P.: V : ;Xk.U : L L } OXOXOXOXOXOXOXOXOXC.b.b.b.b.b.b.b.",
"D.D.D.G.OXOXOXOXOXOXOXOXOXOXOXOXOXOXOX| U B , > ;   u 3 K.I.I.R.R.R.Y.Y.E.B 1 < ;XI 8.u K L } F.OXOX#XOXOXOXOXOXG.M.n.b.b.b.b.b.",
"D.D.D.D.OXOXOXOXOXOXOX@XOXOXOXF.OXOXOX| U s : 1 <   s   K.I.I.I.R.R.'.Y.( 2 f 3 ;XX t.T # L { OXOXOXoXOXOXOXOXOX@XS.b.b.n.b.b.b.",
"D.D.D.D.S.OXOXOXOXOXOX@XOXOXOXOXOXOXOX| V n , a 4   u   K.I.R.I.I.I.E.N n 3 4 1 a.7Xg.,   ~ { OXOXOXOXOXOXOXOXOXS.Z.b.b.b.b.b.b.",
"D.D.D.D.+XOXOXOXOXOXOXOXOXOXOXOXOXOXOXA.m M ; 1 a @ u   K.R.I.I.I.I.H.  V : 4 1   6X,X& & Z { OXOXOXOXOXOXOXOXOXZ.S.M.n.b.b.b.b.",
"D.D.D.D.D.D.OXOXOXOXOXOXOXOXOXOXOXOXOX .B n ; 1 a o 4   P.R.I.I.I.N L   L : V 2 O * jX  y n ] OXOXOXOXOXOXOXOXOXS.S.F.S.Z.M.b.b.",
"D.D.D.D.D.D.F.S.G.F.OXF.+XOXF.F.F.OXOXB.B n ; ; a : 3   P.R.I.I.N m ^   / n   r.2 @ gXq u , ` +XOXOXOXOXOXF.OXOXOXOXF.S.F.OXF.Z.",
"D.D.D.Z.D.+XD.D.Z.D.D.D.D.G.G.D.Z.D.S.B.B n ; & 4 O 1   K.I.I.T s - ^   4 Z   U @ & 9Xs.; 2 6 A.@XOXOXOXOXOXOXOXOXOXF.F.OXOXF.F.",
"D.Z.D.D.D.D.+XD.D.D.D.D.D.S.D.D.D.D.D.[ B m ; ; 1 @ 1   K.I.T B *.; 6.  B 3   n X @ 9X*X2 @   O } +XOXOXOXOXOXOXOXF.F.OXOXOXS.OX",
"D.D.D.D.D.D.D.D.V.D.D.D.D.D.D.D.D.Z.D.[ V n ; ; 1 # 1   K.H.2 B M : P     m   c . 1 ^.;XH g       ) OXOXOXOXOXOXS.Z.S.+XOXF.S.@X",
"D.D.D.D.D.D.D.D.D.D.D.D.D.Z.D.D.D.D.D.' V s ; ; a % y   K.H.@.B ; 8 P     C c C ~ a @ 7Xd.&.! N       ' OX+X@XOXA.| { ' A.OXOXV.",
"D.D.D.D.Z.D.D.D.D.D.D.D.D.Z.D.D.D.G.C.6 T 3 ; ; k < >   K.~.  h.y 8 %.  > G : 4     O X f.pX:.m :       + v 5 O m .     . ' F.M.",
"D.D.D.D.D.D.D.D.D.D.D.D.D.D.Z.Z.Z.] +   T V ; 1 F 1 1   K.Z   e.h 8 D   G G d + 8.f.1.    g.0X* n               : O         ) S.",
"D.D.D.D.D.D.D.Z.D.Z.D.Z.Z.Z.C.' +       T G 9 t E i i   L ~   w.1.* q.    Y #       O.  P r.-Xh n               - O           b ",
"Z.D.D.D.Z.Z.D.C.B.V.C.D.B.)             T &.i k E   e   8.7.  h.1.* p.  9 *.  w l T T &.; -.;X  f N M           #             2 ",
"D.Z.D.D.C.[ 6     . $.            &     T D i @.E   d   K.H.  t.1.8 %.k & p 2 #     V K   <.gX  ; /             *       u m s u ",
"D.Z.[ b     ;       e             u       G w ^.E   e   P.U.  :.u.8 h.    ,       .   Y   g 9Xe.P N $.        # u m M a 2 . 1 u ",
"[ - .       >       a       , K M M < & , F D a.4.  f   7.~   p.u.8 ^..   y         % 2 N n >.0X5X6./ / ^ O   1 # .   @ ;     U ",
"  . @       @     X d     & M L., ; : d     9 t @.  R   _.U.  =.s.8 =X@ o 8   X % =   @   2 e   -X;Xe.  + / M # + .   @ O o   - ",
"    @     . y .     O     .   I y u G E     i t 3.  R f _.~.  -.^.q p.&Xw g % o % %   X   ; ;     A p.n   X     # O   : @ .   ; ",
"    u o @ 1 ; &     &       @ > ; U -       9 R t.  E z ).U.  ^.f.o.  -Xs.g z X o     o   1       R i.j   ; .   #     , @ .   ; ",
". & y & o @ X @     &       @ % p 9   =     p d %.. 3.  E.U.  :X  *Xp.  6X;.7   $     >   . ;   4 # <.  # &     # .   , # .   ; ",
"% ; y . . &   &     o S     # & U y         B e !.X 3.  ).T.  :X  8 t.  4X;.    X     d   a     f @ <.  : @ .   # O   - & O   ; ",
"; & &   . &   .     . 6.. & M ; L 6.      e k d y.  k   _.U   >X0X8 g.  gX4Xg.  o $   w   B   . f . d.@ ; &     @ O   @ ; X   # ",
"& , ; ; 1 9.  & .   & N # , 2 ; f S J k   @ f Y 6.1 .   )..   1.>X8 o >XhXu.&XX X X 7   9 y , < . O j.V , , . @ # +   # ;     c ",
"; M K 9 a.M   >     X S : 3 3 : 3 D =.p.@ % > 9.6.f O   e.    x -X7   4X-Xq 2.2.o   * w 8 >       < 9 :.2 2 . 3 # -   - u   . L ",
"I A ;   h A   &     @ P & 3 y ; P &.4.,.J   i w.*.R     f     x 6XX.X.gX  g t   i   w g..       . 2 0 a.P u . n ; + O a N X . Z ",
"e.7.p   9 A   >     . P * 3 , T & 2.t.,.t.0.H Q.*.  s         x &X4XhX;.  q & X p X % @ J         4   & : V @ H : - , , :     O ",
"M S ^.D 9 p   h.    = #.9 i ; P = 2.t.0.<.x T L.&.1 a         t X.&X5Xj   8   E &.@ t * D @       ~ 9 ; # n N w.i . # # : X   O ",
"A A 2XD > 9   :X&.k d #.9 > * !.@ ,.0.5.0.x -.3.9 l.      D 9 g.&Xs.X.&X  >     p f   p   @ o > G M /.4 @ , @ N H     ; >   . . ",
"M < =Xi h 9 %XwXy.a.y.$.i > > Y % w.q.5.h.2.f 3.d z       @.& z u.&X  p.w.&     p f 9 &   @ ,   f   :X1 . 9 g %.9 : w & : X @ O ",
"& 8 ^.%.%.c.AXNXh.h.h.9.h 9 & e.D a.w.a.^.g., 0.x f .   Y >   w p.:.g q   y   X y F A i   > ;   &   7X<   u q.p.8 @ B X ; . . . ",
"O %.t.y 9.vXAXBXc. X%.9.i > y e.=X:X^.!.Q.g.0.y.E p ;   #.; . k p.u.O.  . (.    d h *   8 % h   t   MXs 3 ^ ^ q.q * d . & . 2 *.",
"        E %XZXBXv.c.w.5.y o n L.N > :X  t.v.w.h.1.d B   o ; , t.$ :.f.  > p     p &.9 * &   i   l.l.MX9 K e.7.~ , q 1.X < O M P ",
"  .       v.ZXBXv.x.5.9.h > y 6.p   :X  z v.k.w.h.$.r.  >     <   % e.> 9 , > o j H d 9   % 8 J z.mXMX. K 8.e.L 2 ; i n :   @ 5.",
"% . &   &.  mXBXc.c.%.w.M 9 y M u @ :X  $ vXc.d.e.$.qX: &.d p Q.% j a.H D , @.* A * H h X w k O.z.CXMX  6.e.6.L 2 + m   <   @ 6.",
"n : F & *.h.o c.&.h w.9.i y y L.,   /.    1.4.k.q.e NX Xv.  . @.* > L.9 K d w w h e l >.*   h =.v.CXmX& 8.7.^ N # # /   . X # I ",
"                      e.Y 9 y !.& d ^.. & w.q.d.x = VXBX%XF H D A # 6.  M y * < &.w @.q.8   e &.z.CXbX$ ( ^ L N # O / O O : O K ",
"  < y 9 H           & q.9.L.y L.G . /.  o D 0.,.* 8 wXnXx.@ o J %.& p e.p   k O.p.< * q 8   =.4.z.ZXbXX ( ^ L C 2 2 . 8.N L X K ",
"*.~ 6.6.6.          9 w.5.D . % o @./.% 1 G @.A 8X=XA k 5.D i *.#.>   *.k 1.          X X   E z l.CXqXX ( H.P.Z 2 - N L.^ Z n ! ",
"I 6.T G u           @ 9.#.        4 :Xi   f y O pX<Xo 9 #.M u %.e.# O.y d 2X,.=.          % 1.  < %Xh.X L ( 8.L N m n ! ~ u n Z "
};
